<?xml version="1.0" encoding="utf-8"?>
<!-- Generator: Adobe Illustrator 27.5.0, SVG Export Plug-In . SVG Version: 6.00 Build 0)  -->
<svg version="1.1" id="Illustration" xmlns="http://www.w3.org/2000/svg" xmlns:xlink="http://www.w3.org/1999/xlink" x="0px"
	 y="0px" viewBox="0 0 1200 800" style="enable-background:new 0 0 1200 800;" xml:space="preserve">
<g>
	
		<linearGradient id="SVGID_1_" gradientUnits="userSpaceOnUse" x1="176.3241" y1="435.7481" x2="1283.7242" y2="435.7481" gradientTransform="matrix(0.9979 -0.0652 0.0652 0.9979 -162.5136 -1.2611)">
		<stop  offset="0" style="stop-color:#B37CFF"/>
		<stop  offset="1" style="stop-color:#F895E7"/>
	</linearGradient>
	<path style="opacity:0.26;fill:url(#SVGID_1_);" d="M218.861,110.705c-81.091,76.441,39.433,159.892-17.336,203.465
		c-56.77,43.574-297.563,137.053-39.951,274.474S436.582,799.832,606.97,691.038c170.389-108.795,152.602-97.882,302.341-41.637
		c149.738,56.245,295.075-55.971,235.46-173.992c-59.615-118.021-92.425-114.358-38.469-195.738
		c53.956-81.381-65.505-330.351-257.837-151.288s-220.842,82.644-312.384,2.044C486.519,86.787,347.012-10.098,218.861,110.705z"/>
	
		<linearGradient id="SVGID_00000087382409234992073310000017311729406344030393_" gradientUnits="userSpaceOnUse" x1="-1341.4286" y1="471.6873" x2="-230.7051" y2="471.6873" gradientTransform="matrix(-0.9963 0.0864 0.0864 0.9963 -239.6524 3.6096)">
		<stop  offset="0" style="stop-color:#B37CFF"/>
		<stop  offset="1" style="stop-color:#F895E7"/>
	</linearGradient>
	<path style="opacity:0.26;fill:url(#SVGID_00000087382409234992073310000017311729406344030393_);" d="M912.198,77.073
		c91.717,63.302-14.805,164.015,47.9,198.505c62.705,34.49,324.146,152.251,91.635,328.847
		c-116.686,88.625-250.559,186.772-435.438,104.99s-165.648-73.684-305.16,4.555C171.622,792.208,10.99,703.257,52.075,577.579
		s74.072-127.017,8.432-199.304C-5.133,305.987,75.31,41.818,292.505,189.742s230.799,48.303,309.101-45.211
		C644.001,93.9,767.255-22.965,912.198,77.073z"/>
	<g>
		<g>
			<g>
				
					<linearGradient id="SVGID_00000119800361228292388270000018328989183723139220_" gradientUnits="userSpaceOnUse" x1="1346.981" y1="368.44" x2="1450.5663" y2="-56.6907" gradientTransform="matrix(0.9879 0.1554 -0.1554 0.9879 -358.0369 -48.0851)">
					<stop  offset="0" style="stop-color:#7A2DDB"/>
					<stop  offset="1" style="stop-color:#7077FF"/>
				</linearGradient>
				<path style="fill:url(#SVGID_00000119800361228292388270000018328989183723139220_);" d="M1028.896,287.142
					c-2.833-9.442-4.402-19.107-3.532-29.224c2.194-25.492,20.502-46.407,34.684-66.422c13.034-18.396,25.065-46.969-8.744-49.575
					c-26.935-2.076-62.381,19.518-70.298,46.603c-9.368,32.057,0.072,75.824-23.488,102.576
					c-32.96,37.425-50.519,24.899-61.553,95.066c-4.715,29.982,9.291,49.131,26.88,61.232c27.762,19.099,64.476,18.92,92.037-0.468
					c24.349-17.128,41.538-44.553,41.93-74.738C1057.209,341.705,1037.382,315.42,1028.896,287.142z"/>
				
					<linearGradient id="SVGID_00000059276299639361330660000001518495152473567620_" gradientUnits="userSpaceOnUse" x1="1370.7953" y1="162.5424" x2="1425.8274" y2="162.5424" gradientTransform="matrix(0.9879 0.1554 -0.1554 0.9879 -358.0369 -48.0851)">
					<stop  offset="0" style="stop-color:#2B3582"/>
					<stop  offset="1" style="stop-color:#150E42"/>
				</linearGradient>
				<path style="fill:url(#SVGID_00000059276299639361330660000001518495152473567620_);" d="M971.243,509.796
					c-0.768,0-1.422-0.586-1.493-1.366c-6.165-68.706-5.755-130.049,1.217-182.326c5.587-41.883,15.377-78.087,29.099-107.606
					c12.245-26.342,25.431-42.393,34.336-51.219c9.73-9.644,16.508-12.98,16.792-13.117c0.745-0.361,1.643-0.049,2.003,0.697
					c0.361,0.745,0.049,1.642-0.695,2.003c-0.102,0.05-6.781,3.374-16.201,12.76c-8.728,8.696-21.656,24.519-33.688,50.516
					c-13.542,29.259-23.204,65.163-28.718,106.714c-6.898,51.978-7.288,112.98-1.156,181.31c0.074,0.825-0.535,1.554-1.36,1.628
					C971.332,509.794,971.287,509.796,971.243,509.796z"/>
			</g>
			
				<linearGradient id="SVGID_00000051372790674964204630000018070889770974776719_" gradientUnits="userSpaceOnUse" x1="1436.9636" y1="96.9758" x2="1442.1715" y2="57.048" gradientTransform="matrix(0.9879 0.1554 -0.1554 0.9879 -358.0369 -48.0851)">
				<stop  offset="0" style="stop-color:#7A2DDB"/>
				<stop  offset="1" style="stop-color:#7077FF"/>
			</linearGradient>
			<path style="fill:url(#SVGID_00000051372790674964204630000018070889770974776719_);" d="M1067.038,217.341
				c-1.232-0.551-2.627-0.882-4.16-0.946c-8.473-0.352-13.271,7.887-16.795,14.365c-3.018,5.547-6.607,12.292-6.372,18.853
				c0.255,7.093,6.681,13.857,13.084,7.703c7.278-6.995,18.243-17.769,19.953-28.287
				C1073.599,223.8,1071.304,219.25,1067.038,217.341z"/>
		</g>
		<g>
			
				<linearGradient id="SVGID_00000161598670365739643230000010475428215118545827_" gradientUnits="userSpaceOnUse" x1="711.5593" y1="518.4412" x2="737.4592" y2="319.8756" gradientTransform="matrix(0.926 0.3773 -0.3773 0.926 525.5206 -234.4131)">
				<stop  offset="0" style="stop-color:#CE1567"/>
				<stop  offset="1" style="stop-color:#7A1DBC"/>
			</linearGradient>
			<path style="fill:url(#SVGID_00000161598670365739643230000010475428215118545827_);" d="M1104.765,419.45
				c6.931-21.891,2.829-48.918,2.49-73.273c-0.179-12.877,0.783-25.477,4.784-37.793c3.978-12.245,12.015-24.901,8.542-38.27
				c-7-26.934-34.869-19.56-52.783-2.93c-20.789,19.299-31.185,54.541-42.123,81.218c-6.594,16.082-15.265,32.277-20.035,48.972
				c-7.902,27.656-4.604,48.238,6.807,63.582c10.945,14.717,30.238,20.446,47.453,14.12
				C1075.451,469.362,1093.584,454.764,1104.765,419.45z"/>
			
				<linearGradient id="SVGID_00000091714668070556494140000005825946428637991610_" gradientUnits="userSpaceOnUse" x1="1625.9237" y1="-133.9328" x2="1668.2902" y2="-133.9328" gradientTransform="matrix(0.926 0.3773 -0.3773 0.926 -518.4499 -106.0152)">
				<stop  offset="0" style="stop-color:#2B3582"/>
				<stop  offset="1" style="stop-color:#150E42"/>
			</linearGradient>
			<path style="fill:url(#SVGID_00000091714668070556494140000005825946428637991610_);" d="M1028.909,514.763
				c-0.821,0-1.491-0.661-1.5-1.484c-0.004-0.349-0.293-35.488,6.988-82.756c6.724-43.647,21.464-106.889,53.504-160.303
				c0.426-0.71,1.347-0.941,2.058-0.515c0.71,0.426,0.941,1.347,0.515,2.058c-31.779,52.979-46.418,115.793-53.102,159.158
				c-7.25,47.038-6.966,81.978-6.962,82.325c0.009,0.828-0.656,1.507-1.484,1.516
				C1028.92,514.763,1028.915,514.763,1028.909,514.763z"/>
		</g>
	</g>
	<g>
		
			<linearGradient id="SVGID_00000097463264277753546050000015934434119041883831_" gradientUnits="userSpaceOnUse" x1="-156.8418" y1="800.4815" x2="36.4039" y2="217.8392" gradientTransform="matrix(0.9957 -0.0923 0.0923 0.9957 203.1774 -70.2543)">
			<stop  offset="0" style="stop-color:#A737D5"/>
			<stop  offset="1" style="stop-color:#EF497A"/>
		</linearGradient>
		<path style="fill:url(#SVGID_00000097463264277753546050000015934434119041883831_);" d="M293.54,413.359
			c-16.557-19.639-21.325-46.549-12.605-70.71c9.309-25.795,13.324-56.386,10.329-88.679
			c-7.858-84.746-61.008-149.108-118.714-143.757s-98.116,78.388-90.258,163.134c1.525,16.451,4.758,32.133,9.4,46.686
			c7.039,22.068,3.064,46.167-11.034,64.546c-13.391,17.457-20.493,39.812-18.301,63.448c2.993,32.272,22.575,59.01,49.542,72.573
			c15.974,8.034,28.368,21.651,34.678,38.381c17.905,47.471,56.099,78.975,97.137,75.17c52.595-4.877,89.94-65.902,83.412-136.304
			C324.015,464.284,311.492,434.653,293.54,413.359z"/>
		
			<linearGradient id="SVGID_00000182486658487748678610000008570906554416129976_" gradientUnits="userSpaceOnUse" x1="-88.7932" y1="781.2834" x2="33.7784" y2="411.726" gradientTransform="matrix(0.9957 -0.0923 0.0923 0.9957 203.1774 -70.2543)">
			<stop  offset="0" style="stop-color:#53D8FF"/>
			<stop  offset="1" style="stop-color:#3840F7"/>
		</linearGradient>
		<path style="fill:url(#SVGID_00000182486658487748678610000008570906554416129976_);" d="M265.502,734.001
			c-1.326,0-2.594-0.757-3.183-2.041c-29.118-63.435-46.497-171.547-55.949-251.072c-10.224-86.018-13.642-158.059-13.675-158.776
			c-0.09-1.931,1.403-3.569,3.333-3.659c1.924-0.091,3.569,1.402,3.659,3.333c0.133,2.859,13.919,287.271,68.993,407.253
			c0.807,1.757,0.036,3.835-1.721,4.641C266.487,733.898,265.991,734.001,265.502,734.001z"/>
	</g>
	<g>
		
			<linearGradient id="SVGID_00000007401310140432394380000017640819529751261589_" gradientUnits="userSpaceOnUse" x1="399.2114" y1="211.1236" x2="335.2549" y2="547.96">
			<stop  offset="0" style="stop-color:#C32B78"/>
			<stop  offset="1" style="stop-color:#593092"/>
		</linearGradient>
		<path style="fill:url(#SVGID_00000007401310140432394380000017640819529751261589_);" d="M286.157,251.078l-38.062,69.437
			c-10.084,18.396-11.185,40.398-2.988,59.709l49.199,115.91c5.579,13.143,6.912,27.7,3.815,41.637l-13.501,60.755
			c-5.061,22.773,1.812,46.556,18.241,63.119l0,0c26.073,26.286,68.311,27.108,95.386,1.855l42.929-40.04
			c20.125-18.771,27.068-47.761,17.629-73.612l-31.131-85.257c-3.977-10.893-5.125-22.617-3.336-34.074l18.44-118.096
			c4.251-27.225-8.22-54.348-31.653-68.844l-28.832-17.835C348.905,205.088,305.027,216.652,286.157,251.078z"/>
		
			<linearGradient id="SVGID_00000126288182641652367820000008653171927589578137_" gradientUnits="userSpaceOnUse" x1="288.8423" y1="676.5555" x2="403.8698" y2="329.7436">
			<stop  offset="0" style="stop-color:#53D8FF"/>
			<stop  offset="1" style="stop-color:#3840F7"/>
		</linearGradient>
		<path style="fill:url(#SVGID_00000126288182641652367820000008653171927589578137_);" d="M352.956,697.631
			c-0.191,0-0.384-0.016-0.578-0.048c-1.907-0.317-3.196-2.119-2.879-4.026c29.42-177.114-8.787-369.626-12.659-379.457
			c-0.816-1.233-0.787-2.901,0.187-4.118c1.207-1.509,3.409-1.755,4.919-0.546c0.963,0.77,1.599,1.279,3.889,11.678
			c1.056,4.793,2.766,13.156,4.917,25.779c3.233,18.962,7.844,49.822,11.456,89.153c6.037,65.721,9.929,163.944-5.804,258.658
			C356.12,696.417,354.637,697.631,352.956,697.631z M337.566,314.896c0.002,0.002,0.005,0.004,0.007,0.006
			C337.571,314.9,337.569,314.898,337.566,314.896z M337.56,314.891l0.001,0.001C337.561,314.892,337.56,314.892,337.56,314.891z"/>
	</g>
	<g style="opacity:0.6;">
		<path style="fill:#FFFFFF;" d="M961.558,172.042c-3.823-18.142-13.333-11.916-29.26-17.498
			c-15.919-5.579-11.263-25.489-21.146-31.632c-13.177-8.189-25.276-0.588-33.474,10.161c-13.62,17.858-22.938,3.335-39.219,10.573
			c-9.327,4.146-5.348,9.955-17.965,12.293c-8.815,1.634-18.358-2.214-27.047,0.138c-6.434,1.742-11.103,4.797-12.526,11.031
			c1.817,0.855,3.699,1.628,5.636,2.327c24.325,8.768,57.509,5.841,82.096,7.133C877.034,177.008,964.267,184.9,961.558,172.042z"/>
		<path style="fill:#FFFFFF;" d="M747.268,110.98c-4.178-5.104-10.414-7.204-16.523-5.676c-6.659,1.665-10.422,8.029-16.619,10.574
			c-10.813,4.44-25.765-4.333-33.977,7.113c-10.044,14-17.805,3.5-17.805,13s69.392,2.5,103.632,3
			c4.947,0.072,26.423-0.288,17.178-10.556c-2.871-3.189-6.967-3.723-10.786-4.469c-4.979-0.973-16.818-1.507-20.424-5.38
			c-1.941-2.085-2.688-5.081-4.441-7.312C747.426,111.175,747.347,111.077,747.268,110.98z"/>
	</g>
	<g>
		<g>
			
				<linearGradient id="SVGID_00000142155198053837021890000013353112574913524886_" gradientUnits="userSpaceOnUse" x1="1090.4158" y1="557.5462" x2="635.7228" y2="605.6036">
				<stop  offset="0" style="stop-color:#53D8FF"/>
				<stop  offset="1" style="stop-color:#3840F7"/>
			</linearGradient>
			<path style="fill:url(#SVGID_00000142155198053837021890000013353112574913524886_);" d="M886.756,399.628h199.025
				l-14.014,325.443c-0.374,8.671-7.512,15.509-16.192,15.509H880.23L886.756,399.628z"/>
			
				<linearGradient id="SVGID_00000120540303901318628480000013898727401952425858_" gradientUnits="userSpaceOnUse" x1="884.508" y1="474.6703" x2="1084.3757" y2="474.6703">
				<stop  offset="0" style="stop-color:#2B3582"/>
				<stop  offset="1" style="stop-color:#150E42"/>
			</linearGradient>
			<polygon style="fill:url(#SVGID_00000120540303901318628480000013898727401952425858_);" points="884.508,517.085 
				1080.723,517.085 1084.376,432.255 886.131,432.255 			"/>
			
				<linearGradient id="SVGID_00000142136547042544839040000017951135954444768185_" gradientUnits="userSpaceOnUse" x1="872.0737" y1="393.9185" x2="1093.7719" y2="393.9185">
				<stop  offset="0" style="stop-color:#9CFFFB"/>
				<stop  offset="1" style="stop-color:#9BFFFA"/>
			</linearGradient>
			<path style="fill:url(#SVGID_00000142136547042544839040000017951135954444768185_);" d="M1087.8,406.154H872.074v-24.47h212.384
				c2.704,0,5.07,1.818,5.767,4.431l3.342,12.533C1094.578,402.436,1091.722,406.154,1087.8,406.154z"/>
			
				<linearGradient id="SVGID_00000024002744992440395050000017985829140852823693_" gradientUnits="userSpaceOnUse" x1="922.6456" y1="474.6703" x2="930.8024" y2="474.6703">
				<stop  offset="0" style="stop-color:#9CFFFB"/>
				<stop  offset="1" style="stop-color:#9BFFFA"/>
			</linearGradient>
			
				<rect x="922.646" y="432.255" style="fill:url(#SVGID_00000024002744992440395050000017985829140852823693_);" width="8.157" height="84.83"/>
			
				<linearGradient id="SVGID_00000028321894395090603640000017694068583392121006_" gradientUnits="userSpaceOnUse" x1="984.637" y1="474.6703" x2="992.7937" y2="474.6703">
				<stop  offset="0" style="stop-color:#9CFFFB"/>
				<stop  offset="1" style="stop-color:#9BFFFA"/>
			</linearGradient>
			
				<rect x="984.637" y="432.255" style="fill:url(#SVGID_00000028321894395090603640000017694068583392121006_);" width="8.157" height="84.83"/>
			
				<linearGradient id="SVGID_00000134950019396543661230000015085559780388807322_" gradientUnits="userSpaceOnUse" x1="1036.8402" y1="474.6703" x2="1049.891" y2="474.6703">
				<stop  offset="0" style="stop-color:#9CFFFB"/>
				<stop  offset="1" style="stop-color:#9BFFFA"/>
			</linearGradient>
			<polygon style="fill:url(#SVGID_00000134950019396543661230000015085559780388807322_);" points="1044.997,517.085 
				1036.84,517.085 1041.734,432.255 1049.891,432.255 			"/>
			<g>
				<path style="opacity:0.76;fill:#FFFFFF;" d="M954.532,637.805h-24.621c-1.31,0-2.372-1.062-2.372-2.372v-78.455
					c0-1.31,1.062-2.372,2.372-2.372h24.621c1.31,0,2.372,1.062,2.372,2.372v78.455
					C956.904,636.744,955.842,637.805,954.532,637.805z"/>
			</g>
			<g>
				<path style="opacity:0.76;fill:#FFFFFF;" d="M1024.68,637.805h-24.62c-1.31,0-2.372-1.062-2.372-2.372v-78.455
					c0-1.31,1.062-2.372,2.372-2.372h24.62c1.31,0,2.372,1.062,2.372,2.372v78.455
					C1027.052,636.744,1025.99,637.805,1024.68,637.805z"/>
			</g>
		</g>
		<g>
			
				<linearGradient id="SVGID_00000126281734908606100180000010826979088293631876_" gradientUnits="userSpaceOnUse" x1="246.8669" y1="638.4215" x2="739.7377" y2="579.3508">
				<stop  offset="0" style="stop-color:#53D8FF"/>
				<stop  offset="1" style="stop-color:#3840F7"/>
			</linearGradient>
			<path style="fill:url(#SVGID_00000126281734908606100180000010826979088293631876_);" d="M488.706,505.666H260.317
				l20.263,224.457c0.535,5.922,5.498,10.457,11.444,10.457h196.682V505.666z"/>
			<path style="opacity:0.76;fill:#FFFFFF;" d="M410.401,740.581h-91.356L308.632,626.03c-0.54-5.941,4.138-11.063,10.103-11.063
				h87.506c5.81,0,10.432,4.869,10.131,10.671L410.401,740.581z"/>
			
				<linearGradient id="SVGID_00000183928169044577347110000002953538510996722341_" gradientUnits="userSpaceOnUse" x1="249.4893" y1="506.4817" x2="474.0241" y2="506.4817">
				<stop  offset="0" style="stop-color:#9CFFFB"/>
				<stop  offset="1" style="stop-color:#9BFFFA"/>
			</linearGradient>
			<path style="fill:url(#SVGID_00000183928169044577347110000002953538510996722341_);" d="M474.024,517.085H257.967
				c-5.944,0-10.038-5.962-7.905-11.51l1.642-4.269c1.258-3.271,4.4-5.429,7.905-5.429h214.416V517.085z"/>
			<rect x="335.359" y="538.293" style="opacity:0.76;fill:#FFFFFF;" width="24.47" height="37.521"/>
			<rect x="381.037" y="538.293" style="opacity:0.76;fill:#FFFFFF;" width="24.47" height="37.521"/>
			<rect x="289.681" y="538.293" style="opacity:0.76;fill:#FFFFFF;" width="24.47" height="37.521"/>
		</g>
		
			<linearGradient id="SVGID_00000176002853109308348860000013033042822145318580_" gradientUnits="userSpaceOnUse" x1="628.9152" y1="792.3733" x2="727.7847" y2="-428.7538">
			<stop  offset="0" style="stop-color:#53D8FF"/>
			<stop  offset="1" style="stop-color:#3840F7"/>
		</linearGradient>
		<polygon style="fill:url(#SVGID_00000176002853109308348860000013033042822145318580_);" points="412.033,257.701 
			439.315,740.581 893.281,740.581 912.857,257.701 		"/>
		
			<linearGradient id="SVGID_00000057829559500323540650000006435458532658332550_" gradientUnits="userSpaceOnUse" x1="400.9589" y1="256.8849" x2="921.72" y2="256.8849">
			<stop  offset="0" style="stop-color:#9CFFFB"/>
			<stop  offset="1" style="stop-color:#9BFFFA"/>
		</linearGradient>
		<path style="fill:url(#SVGID_00000057829559500323540650000006435458532658332550_);" d="M914.582,267.489H409.641
			c-2.457,0-4.626-1.602-5.349-3.95l-3.082-10.015c-1.107-3.599,1.584-7.242,5.349-7.242h509.564c3.43,0,6.053,3.057,5.531,6.447
			l-1.541,10.015C919.693,265.474,917.344,267.489,914.582,267.489z"/>
		
			<linearGradient id="SVGID_00000119082408631631060670000009042284758635822527_" gradientUnits="userSpaceOnUse" x1="414.2448" y1="331.1114" x2="911.2703" y2="331.1114">
			<stop  offset="0" style="stop-color:#2B3582"/>
			<stop  offset="1" style="stop-color:#150E42"/>
		</linearGradient>
		<polygon style="fill:url(#SVGID_00000119082408631631060670000009042284758635822527_);" points="908.493,365.37 911.27,296.853 
			414.245,296.853 418.116,365.37 		"/>
		
			<linearGradient id="SVGID_00000149376353639264425470000004368393825251702206_" gradientUnits="userSpaceOnUse" x1="438.7399" y1="776.9764" x2="537.6096" y2="-444.1519">
			<stop  offset="0" style="stop-color:#53D8FF"/>
			<stop  offset="1" style="stop-color:#3840F7"/>
		</linearGradient>
		
			<rect x="469.13" y="296.853" style="fill:url(#SVGID_00000149376353639264425470000004368393825251702206_);" width="11.419" height="68.517"/>
		
			<linearGradient id="SVGID_00000121972348073671843810000013461151571569588152_" gradientUnits="userSpaceOnUse" x1="516.5348" y1="783.2751" x2="615.4044" y2="-437.8531">
			<stop  offset="0" style="stop-color:#53D8FF"/>
			<stop  offset="1" style="stop-color:#3840F7"/>
		</linearGradient>
		
			<rect x="547.435" y="296.853" style="fill:url(#SVGID_00000121972348073671843810000013461151571569588152_);" width="11.419" height="68.517"/>
		
			<linearGradient id="SVGID_00000123409234760830285760000018431540842869953961_" gradientUnits="userSpaceOnUse" x1="594.3297" y1="789.5739" x2="693.1993" y2="-431.5545">
			<stop  offset="0" style="stop-color:#53D8FF"/>
			<stop  offset="1" style="stop-color:#3840F7"/>
		</linearGradient>
		
			<rect x="625.74" y="296.853" style="fill:url(#SVGID_00000123409234760830285760000018431540842869953961_);" width="11.419" height="68.517"/>
		
			<linearGradient id="SVGID_00000126308923396373789220000008233983576214959006_" gradientUnits="userSpaceOnUse" x1="672.1246" y1="795.8725" x2="770.9941" y2="-425.2557">
			<stop  offset="0" style="stop-color:#53D8FF"/>
			<stop  offset="1" style="stop-color:#3840F7"/>
		</linearGradient>
		
			<rect x="704.045" y="296.853" style="fill:url(#SVGID_00000126308923396373789220000008233983576214959006_);" width="11.419" height="68.517"/>
		
			<linearGradient id="SVGID_00000169524593936133293650000004244535074496060814_" gradientUnits="userSpaceOnUse" x1="749.9194" y1="802.1713" x2="848.789" y2="-418.9571">
			<stop  offset="0" style="stop-color:#53D8FF"/>
			<stop  offset="1" style="stop-color:#3840F7"/>
		</linearGradient>
		
			<rect x="782.349" y="296.853" style="fill:url(#SVGID_00000169524593936133293650000004244535074496060814_);" width="11.419" height="68.517"/>
		
			<linearGradient id="SVGID_00000045600528196515431340000016627370207355943598_" gradientUnits="userSpaceOnUse" x1="827.7143" y1="808.4699" x2="926.5839" y2="-412.6583">
			<stop  offset="0" style="stop-color:#53D8FF"/>
			<stop  offset="1" style="stop-color:#3840F7"/>
		</linearGradient>
		
			<rect x="860.654" y="296.853" style="fill:url(#SVGID_00000045600528196515431340000016627370207355943598_);" width="11.419" height="68.517"/>
		<g>
			
				<linearGradient id="SVGID_00000169550142509202993910000016141624173223221406_" gradientUnits="userSpaceOnUse" x1="474.0241" y1="418.3886" x2="591.5667" y2="418.3886">
				<stop  offset="0" style="stop-color:#9CFFFB"/>
				<stop  offset="1" style="stop-color:#9BFFFA"/>
			</linearGradient>
			
				<rect x="474.024" y="393.103" style="fill:url(#SVGID_00000169550142509202993910000016141624173223221406_);" width="117.543" height="50.572"/>
			
				<linearGradient id="SVGID_00000068639557116925051540000005764325249543540636_" gradientUnits="userSpaceOnUse" x1="552.2179" y1="258.968" x2="530.0943" y2="441.4885">
				<stop  offset="0" style="stop-color:#53D8FF"/>
				<stop  offset="1" style="stop-color:#3840F7"/>
			</linearGradient>
			
				<rect x="478.378" y="397.997" style="fill:url(#SVGID_00000068639557116925051540000005764325249543540636_);" width="108.836" height="42.415"/>
		</g>
		<g>
			
				<linearGradient id="SVGID_00000010272140298027605970000014533147214749820086_" gradientUnits="userSpaceOnUse" x1="602.4503" y1="418.3886" x2="719.9929" y2="418.3886">
				<stop  offset="0" style="stop-color:#9CFFFB"/>
				<stop  offset="1" style="stop-color:#9BFFFA"/>
			</linearGradient>
			
				<rect x="602.45" y="393.103" style="fill:url(#SVGID_00000010272140298027605970000014533147214749820086_);" width="117.543" height="50.572"/>
			
				<linearGradient id="SVGID_00000000905731035643976760000017167365184246945465_" gradientUnits="userSpaceOnUse" x1="678.7845" y1="274.3092" x2="656.6609" y2="456.8298">
				<stop  offset="0" style="stop-color:#53D8FF"/>
				<stop  offset="1" style="stop-color:#3840F7"/>
			</linearGradient>
			
				<rect x="606.804" y="397.997" style="fill:url(#SVGID_00000000905731035643976760000017167365184246945465_);" width="108.836" height="42.415"/>
		</g>
		<g>
			
				<linearGradient id="SVGID_00000047018075229161319470000018221463189337343630_" gradientUnits="userSpaceOnUse" x1="730.8765" y1="418.3886" x2="848.4192" y2="418.3886">
				<stop  offset="0" style="stop-color:#9CFFFB"/>
				<stop  offset="1" style="stop-color:#9BFFFA"/>
			</linearGradient>
			
				<rect x="730.876" y="393.103" style="fill:url(#SVGID_00000047018075229161319470000018221463189337343630_);" width="117.543" height="50.572"/>
			
				<linearGradient id="SVGID_00000093146126798257900230000009170510403158243774_" gradientUnits="userSpaceOnUse" x1="805.3512" y1="289.6505" x2="783.2276" y2="472.1711">
				<stop  offset="0" style="stop-color:#53D8FF"/>
				<stop  offset="1" style="stop-color:#3840F7"/>
			</linearGradient>
			
				<rect x="735.23" y="397.997" style="fill:url(#SVGID_00000093146126798257900230000009170510403158243774_);" width="108.836" height="42.415"/>
		</g>
		
			<linearGradient id="SVGID_00000010309835852641187410000006202513810976806313_" gradientUnits="userSpaceOnUse" x1="573.3194" y1="861.7188" x2="595.5256" y2="735.5469">
			<stop  offset="0" style="stop-color:#53D8FF"/>
			<stop  offset="1" style="stop-color:#3840F7"/>
		</linearGradient>
		
			<rect x="498.494" y="561.132" style="fill:url(#SVGID_00000010309835852641187410000006202513810976806313_);" width="221.864" height="190.868"/>
		
			<linearGradient id="SVGID_00000088830092860035456850000001680166113157349790_" gradientUnits="userSpaceOnUse" x1="500.2805" y1="773.9205" x2="502.2983" y2="405.6261">
			<stop  offset="0" style="stop-color:#53D8FF"/>
			<stop  offset="1" style="stop-color:#3840F7"/>
		</linearGradient>
		<path style="fill:url(#SVGID_00000088830092860035456850000001680166113157349790_);" d="M521.333,752H493.08
			c-6.92,0-12.53-5.61-12.53-12.531V554.607h40.784V752z"/>
		
			<linearGradient id="SVGID_00000080194576671114952150000012038401499976869565_" gradientUnits="userSpaceOnUse" x1="537.6468" y1="685.9303" x2="681.2057" y2="685.9303">
			<stop  offset="0" style="stop-color:#2B3582"/>
			<stop  offset="1" style="stop-color:#150E42"/>
		</linearGradient>
		
			<rect x="537.647" y="619.861" style="fill:url(#SVGID_00000080194576671114952150000012038401499976869565_);" width="143.559" height="132.139"/>
		
			<linearGradient id="SVGID_00000080202849615182610540000009737474159256436375_" gradientUnits="userSpaceOnUse" x1="463.2619" y1="608.5095" x2="871.6364" y2="608.5095">
			<stop  offset="0" style="stop-color:#9CFFFB"/>
			<stop  offset="1" style="stop-color:#9BFFFA"/>
		</linearGradient>
		<path style="fill:url(#SVGID_00000080202849615182610540000009737474159256436375_);" d="M463.281,476.377l5.849,99.437h228.389
			V752h148.77c8.026,0,14.621-6.334,14.946-14.353l10.392-256.842c0.244-6.039-4.547-11.088-10.591-11.161l-386.918-4.624
			C467.895,464.945,462.915,470.164,463.281,476.377z"/>
		
			<linearGradient id="SVGID_00000082341558484654619360000006188317085975167617_" gradientUnits="userSpaceOnUse" x1="737.0554" y1="487.2167" x2="537.4995" y2="538.6485">
			<stop  offset="0" style="stop-color:#53D8FF"/>
			<stop  offset="1" style="stop-color:#3840F7"/>
		</linearGradient>
		<polygon style="fill:url(#SVGID_00000082341558484654619360000006188317085975167617_);" points="467.211,543.187 
			720.358,543.187 720.358,505.666 465.004,505.666 		"/>
		
			<linearGradient id="SVGID_00000101072411184723963790000018041892758892244657_" gradientUnits="userSpaceOnUse" x1="505.0197" y1="524.4266" x2="514.8078" y2="524.4266">
			<stop  offset="0" style="stop-color:#9CFFFB"/>
			<stop  offset="1" style="stop-color:#9BFFFA"/>
		</linearGradient>
		
			<rect x="505.02" y="505.666" style="fill:url(#SVGID_00000101072411184723963790000018041892758892244657_);" width="9.788" height="37.521"/>
		
			<linearGradient id="SVGID_00000134237823952888544690000008077081759484651400_" gradientUnits="userSpaceOnUse" x1="549.0662" y1="524.4266" x2="558.8543" y2="524.4266">
			<stop  offset="0" style="stop-color:#9CFFFB"/>
			<stop  offset="1" style="stop-color:#9BFFFA"/>
		</linearGradient>
		
			<rect x="549.066" y="505.666" style="fill:url(#SVGID_00000134237823952888544690000008077081759484651400_);" width="9.788" height="37.521"/>
		
			<linearGradient id="SVGID_00000026125639671640794920000004905250751806049437_" gradientUnits="userSpaceOnUse" x1="593.1127" y1="524.4266" x2="602.9008" y2="524.4266">
			<stop  offset="0" style="stop-color:#9CFFFB"/>
			<stop  offset="1" style="stop-color:#9BFFFA"/>
		</linearGradient>
		
			<rect x="593.113" y="505.666" style="fill:url(#SVGID_00000026125639671640794920000004905250751806049437_);" width="9.788" height="37.521"/>
		
			<linearGradient id="SVGID_00000134250249962783733020000002505305710696906882_" gradientUnits="userSpaceOnUse" x1="637.1592" y1="524.4266" x2="646.9473" y2="524.4266">
			<stop  offset="0" style="stop-color:#9CFFFB"/>
			<stop  offset="1" style="stop-color:#9BFFFA"/>
		</linearGradient>
		
			<rect x="637.159" y="505.666" style="fill:url(#SVGID_00000134250249962783733020000002505305710696906882_);" width="9.788" height="37.521"/>
		
			<linearGradient id="SVGID_00000091007321784375876550000005477496657924316839_" gradientUnits="userSpaceOnUse" x1="681.2057" y1="524.4266" x2="690.9938" y2="524.4266">
			<stop  offset="0" style="stop-color:#9CFFFB"/>
			<stop  offset="1" style="stop-color:#9BFFFA"/>
		</linearGradient>
		
			<rect x="681.206" y="505.666" style="fill:url(#SVGID_00000091007321784375876550000005477496657924316839_);" width="9.788" height="37.521"/>
		
			<linearGradient id="SVGID_00000045594687396299115190000014246442400445983918_" gradientUnits="userSpaceOnUse" x1="837.4314" y1="497.1735" x2="807.1979" y2="577.7963">
			<stop  offset="0" style="stop-color:#FDF53F"/>
			<stop  offset="1" style="stop-color:#D93C65"/>
		</linearGradient>
		<circle style="fill:url(#SVGID_00000045594687396299115190000014246442400445983918_);" cx="792.953" cy="615.782" r="61.991"/>
		<path style="fill:#FFFFFF;" d="M828.442,598.653h-20.599v-17.744c0-4.165-3.377-7.542-7.542-7.542h-15.096
			c-4.165,0-7.542,3.377-7.542,7.542v17.744h-20.599c-4.166,0-7.542,3.377-7.542,7.542v17.543c0,4.166,3.377,7.542,7.542,7.542
			h20.599v17.744c0,4.165,3.377,7.542,7.542,7.542h15.096c4.165,0,7.542-3.377,7.542-7.542V631.28h20.599
			c4.165,0,7.542-3.377,7.542-7.542v-17.543C835.984,602.03,832.607,598.653,828.442,598.653z"/>
		<g>
			
				<linearGradient id="SVGID_00000031922031181795414140000007174776194000777122_" gradientUnits="userSpaceOnUse" x1="508.8353" y1="280.5901" x2="525.7736" y2="15.9281">
				<stop  offset="0" style="stop-color:#53D8FF"/>
				<stop  offset="1" style="stop-color:#3840F7"/>
			</linearGradient>
			<path style="fill:url(#SVGID_00000031922031181795414140000007174776194000777122_);" d="M535.874,238.031h-11.822v-21.308
				h-21.673v21.308h-11.785v-52.322h11.785v20.871h21.673v-20.871h11.822V238.031z"/>
			
				<linearGradient id="SVGID_00000090294481772767932280000004804568096487741857_" gradientUnits="userSpaceOnUse" x1="565.5693" y1="284.2212" x2="582.5075" y2="19.5583">
				<stop  offset="0" style="stop-color:#53D8FF"/>
				<stop  offset="1" style="stop-color:#3840F7"/>
			</linearGradient>
			<path style="fill:url(#SVGID_00000090294481772767932280000004804568096487741857_);" d="M569.953,238.943
				c-7.492,0-13.598-2.439-18.317-7.316c-4.719-4.877-7.078-11.232-7.078-19.064c0-8.27,2.396-14.96,7.188-20.068
				c4.792-5.108,11.141-7.662,19.046-7.662c7.468,0,13.506,2.445,18.116,7.334c4.61,4.889,6.914,11.335,6.914,19.338
				c0,8.222-2.39,14.85-7.17,19.885S577.639,238.943,569.953,238.943z M570.463,194.976c-4.135,0-7.419,1.551-9.852,4.652
				c-2.432,3.101-3.649,7.206-3.649,12.314c0,5.181,1.216,9.28,3.649,12.296c2.432,3.016,5.619,4.524,9.56,4.524
				c4.062,0,7.285-1.466,9.669-4.397c2.384-2.931,3.576-6.999,3.576-12.205c0-5.424-1.156-9.645-3.466-12.661
				C577.639,196.484,574.477,194.976,570.463,194.976z"/>
			
				<linearGradient id="SVGID_00000103257747982730687470000005108410778878889384_" gradientUnits="userSpaceOnUse" x1="614.9986" y1="287.3847" x2="631.9368" y2="22.7222">
				<stop  offset="0" style="stop-color:#53D8FF"/>
				<stop  offset="1" style="stop-color:#3840F7"/>
			</linearGradient>
			<path style="fill:url(#SVGID_00000103257747982730687470000005108410778878889384_);" d="M602.097,236.024v-11.676
				c2.116,1.776,4.415,3.107,6.896,3.995c2.481,0.888,4.987,1.332,7.516,1.332c1.484,0,2.779-0.134,3.886-0.401
				c1.107-0.268,2.031-0.638,2.773-1.113c0.742-0.474,1.295-1.034,1.66-1.678c0.365-0.645,0.547-1.344,0.547-2.098
				c0-1.022-0.292-1.934-0.876-2.737s-1.38-1.545-2.39-2.226c-1.009-0.681-2.207-1.338-3.594-1.97
				c-1.386-0.632-2.883-1.277-4.488-1.934c-4.087-1.703-7.133-3.783-9.14-6.239c-2.007-2.457-3.01-5.424-3.01-8.903
				c0-2.724,0.547-5.066,1.642-7.024c1.095-1.958,2.584-3.57,4.47-4.835c1.885-1.265,4.068-2.195,6.549-2.791
				c2.481-0.596,5.108-0.894,7.881-0.894c2.724,0,5.139,0.164,7.243,0.493c2.104,0.328,4.044,0.833,5.82,1.514v10.91
				c-0.876-0.608-1.83-1.143-2.864-1.605c-1.034-0.462-2.098-0.845-3.193-1.149c-1.095-0.304-2.183-0.529-3.266-0.675
				c-1.083-0.146-2.11-0.219-3.083-0.219c-1.338,0-2.554,0.128-3.649,0.383c-1.095,0.255-2.019,0.614-2.773,1.076
				c-0.754,0.462-1.338,1.016-1.751,1.66c-0.413,0.645-0.62,1.368-0.62,2.171c0,0.876,0.231,1.66,0.693,2.353
				c0.462,0.693,1.119,1.35,1.97,1.97c0.851,0.62,1.885,1.228,3.101,1.824c1.216,0.596,2.591,1.21,4.123,1.843
				c2.092,0.876,3.971,1.806,5.637,2.791c1.666,0.985,3.095,2.098,4.287,3.339c1.192,1.241,2.104,2.658,2.737,4.251
				c0.633,1.593,0.949,3.448,0.949,5.564c0,2.919-0.553,5.37-1.66,7.352c-1.107,1.982-2.609,3.588-4.506,4.816
				c-1.897,1.228-4.105,2.11-6.622,2.645c-2.518,0.535-5.175,0.803-7.972,0.803c-2.87,0-5.601-0.243-8.191-0.73
				C606.239,237.727,603.995,236.997,602.097,236.024z"/>
			
				<linearGradient id="SVGID_00000116194370580702483640000016095408694430240177_" gradientUnits="userSpaceOnUse" x1="659.3782" y1="290.2249" x2="676.3164" y2="25.5624">
				<stop  offset="0" style="stop-color:#53D8FF"/>
				<stop  offset="1" style="stop-color:#3840F7"/>
			</linearGradient>
			<path style="fill:url(#SVGID_00000116194370580702483640000016095408694430240177_);" d="M658.178,220.006v18.025h-11.785
				v-52.322h18.462c13.184,0,19.776,5.558,19.776,16.675c0,5.254-1.891,9.505-5.674,12.752c-3.783,3.247-8.836,4.871-15.16,4.871
				H658.178z M658.178,194.757v16.31h4.634c6.276,0,9.414-2.749,9.414-8.246c0-5.376-3.138-8.064-9.414-8.064H658.178z"/>
			
				<linearGradient id="SVGID_00000123406583456622862870000003137344094807952826_" gradientUnits="userSpaceOnUse" x1="693.0334" y1="292.3786" x2="709.9717" y2="27.7161">
				<stop  offset="0" style="stop-color:#53D8FF"/>
				<stop  offset="1" style="stop-color:#3840F7"/>
			</linearGradient>
			<path style="fill:url(#SVGID_00000123406583456622862870000003137344094807952826_);" d="M708.457,185.709v9.122h-4.378v34.079
				h4.378v9.122h-20.542v-9.122h4.379V194.83h-4.379v-9.122H708.457z"/>
			
				<linearGradient id="SVGID_00000015354482946750648700000005944670927336018852_" gradientUnits="userSpaceOnUse" x1="725.2665" y1="294.4418" x2="742.2047" y2="29.7793">
				<stop  offset="0" style="stop-color:#53D8FF"/>
				<stop  offset="1" style="stop-color:#3840F7"/>
			</linearGradient>
			<path style="fill:url(#SVGID_00000015354482946750648700000005944670927336018852_);" d="M752.716,195.305h-14.923v42.726
				h-11.822v-42.726h-14.85v-9.596h41.595V195.305z"/>
			
				<linearGradient id="SVGID_00000124865929203746798030000002705444344994236332_" gradientUnits="userSpaceOnUse" x1="776.1348" y1="297.6974" x2="793.0731" y2="33.0351">
				<stop  offset="0" style="stop-color:#53D8FF"/>
				<stop  offset="1" style="stop-color:#3840F7"/>
			</linearGradient>
			<path style="fill:url(#SVGID_00000124865929203746798030000002705444344994236332_);" d="M805.768,238.031h-12.844l-3.722-11.639
				h-18.608l-3.685,11.639h-12.77l19.046-52.322h13.975L805.768,238.031z M786.503,217.343l-5.619-17.587
				c-0.414-1.314-0.705-2.882-0.876-4.707h-0.292c-0.122,1.533-0.426,3.053-0.912,4.561l-5.692,17.733H786.503z"/>
			
				<linearGradient id="SVGID_00000011028127895815280550000013963815376519463336_" gradientUnits="userSpaceOnUse" x1="822.1974" y1="300.6453" x2="839.1357" y2="35.983">
				<stop  offset="0" style="stop-color:#53D8FF"/>
				<stop  offset="1" style="stop-color:#3840F7"/>
			</linearGradient>
			<path style="fill:url(#SVGID_00000011028127895815280550000013963815376519463336_);" d="M843.459,238.031h-31.16v-52.322h11.785
				v42.763h19.375V238.031z"/>
		</g>
	</g>
	<g>
		<g>
			
				<linearGradient id="SVGID_00000011731218869909757040000007480368163196357256_" gradientUnits="userSpaceOnUse" x1="270.0283" y1="710.2874" x2="264.6366" y2="820.2761">
				<stop  offset="0" style="stop-color:#A737D5"/>
				<stop  offset="1" style="stop-color:#EF497A"/>
			</linearGradient>
			<polygon style="fill:url(#SVGID_00000011731218869909757040000007480368163196357256_);" points="469.98,746.875 66.5,746.655 
				99.025,727.975 432.181,727.975 			"/>
			
				<linearGradient id="SVGID_00000085958288544987347260000007483498943666445721_" gradientUnits="userSpaceOnUse" x1="270.9542" y1="707.3049" x2="267.7578" y2="754.1852">
				<stop  offset="0" style="stop-color:#C32B78"/>
				<stop  offset="1" style="stop-color:#593092"/>
			</linearGradient>
			<path style="fill:url(#SVGID_00000085958288544987347260000007483498943666445721_);" d="M456.355,760.5H80.125
				c-7.525,0-13.625-6.1-13.625-13.625v0h403.48v0C469.98,754.4,463.88,760.5,456.355,760.5z"/>
			
				<linearGradient id="SVGID_00000134947239289824460390000009372967717479840418_" gradientUnits="userSpaceOnUse" x1="290.7487" y1="507.7016" x2="284.1185" y2="549.7885">
				<stop  offset="0" style="stop-color:#2B3582"/>
				<stop  offset="1" style="stop-color:#150E42"/>
			</linearGradient>
			<path style="fill:url(#SVGID_00000134947239289824460390000009372967717479840418_);" d="M105.18,735.667
				c-0.039,0-0.077,0-0.117-0.002c-2.426-0.063-4.342-2.082-4.279-4.508l4.091-156.953c0.23-8.829,3.841-17.085,10.166-23.248
				c6.326-6.163,14.674-9.557,23.505-9.557l262.376-1.319c9.155,0,17.703,3.594,24.092,10.12c6.389,6.526,9.8,15.149,9.606,24.279
				l-3.319,156.007c-0.051,2.395-2.009,4.302-4.392,4.302c-0.032,0-0.063,0-0.095-0.001c-2.427-0.052-4.352-2.061-4.301-4.488
				l3.319-156.006c0.144-6.748-2.378-13.12-7.099-17.943c-4.721-4.823-11.039-7.479-17.788-7.479l-262.376,1.319
				c-13.621,0-24.552,10.649-24.907,24.244l-4.091,156.953C109.509,733.774,107.554,735.667,105.18,735.667z"/>
			<g>
				
					<linearGradient id="SVGID_00000182492270761204484360000013945896922634558893_" gradientUnits="userSpaceOnUse" x1="372.8275" y1="529.3771" x2="243.3257" y2="449.91">
					<stop  offset="0" style="stop-color:#FDF53F"/>
					<stop  offset="1" style="stop-color:#D93C65"/>
				</linearGradient>
				<path style="fill:url(#SVGID_00000182492270761204484360000013945896922634558893_);" d="M307.357,451.956
					c0,0,1.319,72.521,43.073,87.904l-7.472,6.153c0,0-46.589-15.383-56.259-58.456L307.357,451.956z"/>
				
					<linearGradient id="SVGID_00000066492391625262057410000001380717312670972038_" gradientUnits="userSpaceOnUse" x1="371.0408" y1="521.9948" x2="328.8274" y2="583.6487">
					<stop  offset="0" style="stop-color:#F9B776"/>
					<stop  offset="1" style="stop-color:#F47960"/>
				</linearGradient>
				<path style="fill:url(#SVGID_00000066492391625262057410000001380717312670972038_);" d="M343.48,545.902l26.173-1.091
					l-7.76-7.76c-1.463-1.463-3.715-1.787-5.531-0.797c0,0-11.985,3.849-14.249,7.201
					C341.392,544.522,342.194,545.956,343.48,545.902z"/>
				
					<linearGradient id="SVGID_00000101098303529098203550000005729927007780303524_" gradientUnits="userSpaceOnUse" x1="241.3722" y1="626.6658" x2="307.3678" y2="626.6658">
					<stop  offset="0" style="stop-color:#2B3582"/>
					<stop  offset="1" style="stop-color:#150E42"/>
				</linearGradient>
				<path style="fill:url(#SVGID_00000101098303529098203550000005729927007780303524_);" d="M280.107,553.046
					c0,0,26.371,54.501,27.25,82.63c0.879,28.129-54.94,76.916-54.94,76.916l-7.472-6.153c0,0,37.799-45.71,31.646-69.005
					c-4.44-16.807-22.377-49.628-32.025-66.607c-3.875-6.82-4.243-15.082-0.998-22.223l3.575-7.864L280.107,553.046z"/>
				
					<linearGradient id="SVGID_00000083049554775248618190000018399645375900801712_" gradientUnits="userSpaceOnUse" x1="232.8739" y1="753.3802" x2="250.8797" y2="724.571">
					<stop  offset="0" style="stop-color:#53D8FF"/>
					<stop  offset="1" style="stop-color:#3840F7"/>
				</linearGradient>
				<path style="fill:url(#SVGID_00000083049554775248618190000018399645375900801712_);" d="M245.385,706.439l-5.869,4.633
					c-1.554,1.227-2.329,3.193-2.025,5.149c0.933,6.001,3.251,18.55,6.575,20.545c3.054,1.832,12.048,1.331,17.254,0.854
					c2.299-0.211,3.744-2.62,2.798-4.726c-0.749-1.667-2.033-3.341-4.229-4.04c-9.669-3.077-7.911-16.262-7.911-16.262
					L245.385,706.439z"/>
				
					<linearGradient id="SVGID_00000055697806589086770510000006258053878722684341_" gradientUnits="userSpaceOnUse" x1="293.8084" y1="707.0651" x2="251.795" y2="752.0793">
					<stop  offset="0" style="stop-color:#53D8FF"/>
					<stop  offset="1" style="stop-color:#3840F7"/>
				</linearGradient>
				<path style="fill:url(#SVGID_00000055697806589086770510000006258053878722684341_);" d="M258.131,723.141
					c0,0,8.79,14.504,18.46,17.141c9.669,2.637,19.389-4.939,19.778-7.472c0.879-5.714-16.702-4.395-28.129-13.186
					C260.592,713.741,252.857,716.108,258.131,723.141z"/>
				
					<linearGradient id="SVGID_00000054977410072990445280000009192249451809813924_" gradientUnits="userSpaceOnUse" x1="279.6807" y1="612.5156" x2="171.5824" y2="690.4189">
					<stop  offset="0" style="stop-color:#2B3582"/>
					<stop  offset="1" style="stop-color:#150E42"/>
				</linearGradient>
				<path style="fill:url(#SVGID_00000054977410072990445280000009192249451809813924_);" d="M247.583,536.784
					c0,0-15.823,21.976-8.351,36.92c7.472,14.944,43.249,74.434,17.669,143.801c0,0,2.989,2.56,11.34,2.12
					c0,0,37.359-70.323,8.351-136.252c0,0,0-25.492,7.911-42.633L247.583,536.784z"/>
				
					<linearGradient id="SVGID_00000167371167244119158120000001931251143023517841_" gradientUnits="userSpaceOnUse" x1="273.0767" y1="493.9638" x2="193.6097" y2="573.4308">
					<stop  offset="0" style="stop-color:#FDF53F"/>
					<stop  offset="1" style="stop-color:#D93C65"/>
				</linearGradient>
				<path style="fill:url(#SVGID_00000167371167244119158120000001931251143023517841_);" d="M267.247,435.945
					c10.764-2.402,28.775-2.436,40.708,15.04c2.869,4.202,3.646,9.491,2.127,14.347c-5.996,19.176-23.139,73.323-29.975,87.714
					c0,0-22.478,6.648-38.05-8.543c0,0,7.723-28.377,9.92-35.848c1.756-5.971,5.758-47.306,7.294-63.673
					C259.688,440.557,262.909,436.913,267.247,435.945z"/>
				
					<linearGradient id="SVGID_00000173144787257950074050000000283980458493688985_" gradientUnits="userSpaceOnUse" x1="278.4355" y1="427.2371" x2="306.4785" y2="427.2371">
					<stop  offset="0" style="stop-color:#F9B776"/>
					<stop  offset="1" style="stop-color:#F47960"/>
				</linearGradient>
				<path style="fill:url(#SVGID_00000173144787257950074050000000283980458493688985_);" d="M294.611,411.081l-15.927,23.476
					c-0.683,1.628,0.087,3.501,1.72,4.172c3.014,1.239,8.083,3.137,13.931,4.569c1.828,0.448,3.663-0.722,4.05-2.564l8.093-18.665
					L294.611,411.081z"/>
				<g>
					
						<linearGradient id="SVGID_00000013911497564930865880000013344727101708650927_" gradientUnits="userSpaceOnUse" x1="312.1418" y1="403.7903" x2="278.3304" y2="429.6612">
						<stop  offset="0" style="stop-color:#F9B776"/>
						<stop  offset="1" style="stop-color:#F47960"/>
					</linearGradient>
					<path style="fill:url(#SVGID_00000013911497564930865880000013344727101708650927_);" d="M310.902,391.831
						c0,0,5.914,13.587,6.312,20.718c0.397,7.131,1.934,11.758-6.312,13.195c-8.246,1.436-15.192-2.672-18.955-9.775
						c0,0-5.896-10.946-4.573-15.428C288.697,396.057,310.902,391.831,310.902,391.831z"/>
					
						<linearGradient id="SVGID_00000044160956708271048120000011920008654632617095_" gradientUnits="userSpaceOnUse" x1="288.3401" y1="383.3062" x2="319.8301" y2="423.8495">
						<stop  offset="0" style="stop-color:#2B3582"/>
						<stop  offset="1" style="stop-color:#150E42"/>
					</linearGradient>
					<path style="fill:url(#SVGID_00000044160956708271048120000011920008654632617095_);" d="M294.765,410.861l0.469-0.207
						c0.598-0.263,0.853-0.975,0.553-1.555c-1.163-2.247-3.43-7.395-0.501-8.596c3.774-1.548,18.722-4.596,21.947-9.9
						c3.1-5.098,0.353-11.678-3.774-13.55c-0.276-0.125-0.602-0.026-0.744,0.242l-0.344,0.651c-0.236,0.446-0.893,0.378-1.034-0.106
						l0,0c-0.135-0.465-0.753-0.555-1.009-0.145c-0.992,1.587-3.668,4.16-10.826,5.48c-10.172,1.877-16.898,5.994-17.065,13.023
						c-0.011,0.447-0.486,0.695-0.867,0.462c-0.751-0.458-1.953-0.673-3.559,0.678c-2.794,2.349-1.65,8.443,4.474,13.455
						c0.291,0.238,0.289,0.692-0.026,0.897c-1.11,0.723-2.765,2.442,1.523,4.735c4.436,2.371,7.748,2.177,9.024,1.966
						c0.317-0.052,0.522-0.359,0.453-0.674l-1.361-6.178c-0.077-0.35,0.189-0.681,0.547-0.681H294.765z"/>
					
						<linearGradient id="SVGID_00000036965304820109477350000007284921382393649833_" gradientUnits="userSpaceOnUse" x1="307.9479" y1="398.3092" x2="274.1365" y2="424.1801">
						<stop  offset="0" style="stop-color:#F9B776"/>
						<stop  offset="1" style="stop-color:#F47960"/>
					</linearGradient>
					<path style="fill:url(#SVGID_00000036965304820109477350000007284921382393649833_);" d="M295.021,412.165
						c0,0-2.256-8.679-6.147-6.246c-3.891,2.433,2.019,9.724,5.147,10.049L295.021,412.165z"/>
				</g>
				
					<linearGradient id="SVGID_00000041998892496691490270000012838152816382275495_" gradientUnits="userSpaceOnUse" x1="263.2625" y1="484.1494" x2="183.7955" y2="563.6164">
					<stop  offset="0" style="stop-color:#FDF53F"/>
					<stop  offset="1" style="stop-color:#D93C65"/>
				</linearGradient>
				<path style="fill:url(#SVGID_00000041998892496691490270000012838152816382275495_);" d="M262.182,439.051
					c0,0-38.773,32.684-40.97,54.66c-2.198,21.976,21.976,54.94,21.976,54.94l6.593-3.956c0,0-13.625-30.327-7.911-43.513
					c6.878-15.872,36.48-37.359,36.48-37.359S267.111,439.331,262.182,439.051z"/>
			</g>
			
				<linearGradient id="SVGID_00000151526218730452167610000006212012764735488670_" gradientUnits="userSpaceOnUse" x1="264.2285" y1="544.4319" x2="264.9221" y2="749.0705">
				<stop  offset="0" style="stop-color:#2B3582"/>
				<stop  offset="1" style="stop-color:#150E42"/>
			</linearGradient>
			<path style="fill:url(#SVGID_00000151526218730452167610000006212012764735488670_);" d="M440.534,745.556
				c-0.032,0-0.063,0-0.095-0.001c-2.427-0.051-4.352-2.061-4.301-4.488l3.319-156.006c0.143-6.748-2.378-13.12-7.099-17.943
				c-4.721-4.823-11.039-7.479-17.788-7.479H118.769c-13.6,0-24.53,10.649-24.884,24.244l-4.091,156.953
				c-0.063,2.427-2.065,4.356-4.508,4.279c-2.427-0.063-4.342-2.082-4.279-4.508l4.091-156.953
				c0.23-8.829,3.841-17.085,10.166-23.248s14.674-9.557,23.505-9.557H414.57c9.133,0,17.681,3.594,24.069,10.12
				c6.389,6.526,9.8,15.149,9.606,24.28l-3.319,156.006C444.876,743.649,442.918,745.556,440.534,745.556z"/>
			
				<linearGradient id="SVGID_00000170244470196967080540000004314446453587077558_" gradientUnits="userSpaceOnUse" x1="264.6247" y1="561.3508" x2="245.6673" y2="540.206">
				<stop  offset="0" style="stop-color:#F9B776"/>
				<stop  offset="1" style="stop-color:#F47960"/>
			</linearGradient>
			<path style="fill:url(#SVGID_00000170244470196967080540000004314446453587077558_);" d="M242.057,550.971
				c0,0,7.723-8.474,12.997-8.913c5.274-0.439,15.027,9.637,15.425,11.851c0.34,1.891-8.59,2.487-11.475-0.94
				c-1.171-1.391-2.961-2.105-4.779-2.091L242.057,550.971z"/>
		</g>
		<g>
			
				<linearGradient id="SVGID_00000005962269507943199290000016867457121815486375_" gradientUnits="userSpaceOnUse" x1="-3876.9548" y1="377.4208" x2="-3839.9233" y2="470.3137" gradientTransform="matrix(-1 0 0 1 -3675.4333 0)">
				<stop  offset="0" style="stop-color:#2B3582"/>
				<stop  offset="1" style="stop-color:#150E42"/>
			</linearGradient>
			<path style="fill:url(#SVGID_00000005962269507943199290000016867457121815486375_);" d="M182.408,428.524
				c0,0-12.601,4.2-20.764,22.203c-2.232,4.922-14.351,5.796-15.602,15.892c-0.646,5.213-4.503,9.388-9.695,10.184
				c-12.932,1.982-32.861,8.697-36.05,31.15c-2.434,17.138,6.303,23.636,15.471,25.885c6.734,1.652,11.21,8.202,9.847,15.001
				c-1.306,6.521,0.642,14.059,11.939,20.021c25.316,13.359,50.599-31.647,50.599-31.647l5.181-78.583L182.408,428.524z"/>
			
				<linearGradient id="SVGID_00000021826862649197187230000006130607759212652716_" gradientUnits="userSpaceOnUse" x1="-3788.3521" y1="749.4396" x2="-3770.3826" y2="749.4396" gradientTransform="matrix(-1 0 0 1 -3675.4333 0)">
				<stop  offset="0" style="stop-color:#2B3582"/>
				<stop  offset="1" style="stop-color:#150E42"/>
			</linearGradient>
			<path style="fill:url(#SVGID_00000021826862649197187230000006130607759212652716_);" d="M112.897,745.13l-1.022,8.402
				c-0.194,1.594-1.449,2.854-3.044,3.037c-2.693,0.308-7.016,0.623-11.245,0.176c-1.856-0.196-3.062-2.076-2.496-3.855
				c1.031-3.244,2.917-8.113,5.636-10.978h9.321C111.77,741.912,113.105,743.419,112.897,745.13z"/>
			
				<linearGradient id="SVGID_00000034806211287775227120000008342043181513570488_" gradientUnits="userSpaceOnUse" x1="-3864.283" y1="820.3019" x2="-3838.4236" y2="518.0679" gradientTransform="matrix(-1 0 0 1 -3675.4333 0)">
				<stop  offset="0" style="stop-color:#F9B776"/>
				<stop  offset="1" style="stop-color:#F47960"/>
			</linearGradient>
			<path style="fill:url(#SVGID_00000034806211287775227120000008342043181513570488_);" d="M185.902,646.701l1.573,9.254
				c0,0-5.268,53.365-6.205,74.711c-0.147,3.347,0.719,6.654,2.475,9.506l9.161,14.877l-23.282-13.739l-0.463-2.841l3.811-5.24
				l-4.992-59.782c-0.293-3.512,0.431-7.034,2.087-10.145l4.816-9.047L185.902,646.701z"/>
			
				<linearGradient id="SVGID_00000078741156553021312530000003886359065811412664_" gradientUnits="userSpaceOnUse" x1="-3871.8374" y1="746.1588" x2="-3842.7612" y2="746.1588" gradientTransform="matrix(-1 0 0 1 -3675.4333 0)">
				<stop  offset="0" style="stop-color:#2B3582"/>
				<stop  offset="1" style="stop-color:#150E42"/>
			</linearGradient>
			<path style="fill:url(#SVGID_00000078741156553021312530000003886359065811412664_);" d="M194.439,757.204h-7.43
				c-1.391,0-2.702-0.638-3.551-1.741c-2.316-3.01-7.115-8.882-9.41-9.035c-3.089-0.206-2.694,10.775-2.694,10.775h-1.731
				l-2.193-13.646c-0.552-3.433,1.156-6.835,4.239-8.444l0,0c0,0,0.706,5.222,4.535,7.532c3.829,2.31,15.581,10.582,15.581,10.582
				s1.439-0.205,3.02,0.08C197.149,753.732,196.822,757.204,194.439,757.204z"/>
			
				<linearGradient id="SVGID_00000031171594720065317180000001019100707111070379_" gradientUnits="userSpaceOnUse" x1="-3812.2649" y1="824.7989" x2="-3786.3987" y2="522.4854" gradientTransform="matrix(-1 0 0 1 -3675.4333 0)">
				<stop  offset="0" style="stop-color:#F9B776"/>
				<stop  offset="1" style="stop-color:#F47960"/>
			</linearGradient>
			<path style="fill:url(#SVGID_00000031171594720065317180000001019100707111070379_);" d="M154.013,651.096
				c0,0-30.864,58.546-35.771,71.913c-4.906,13.367-6.625,24.518-6.691,25.574c-0.103,1.65-2.155,3.232-7.812,3.232
				c-2.92,0-4.349-1.17-5.049-2.303c-0.597-0.966-0.628-2.176-0.125-3.194c1.785-3.613,7.451-15.16,9.549-20.397
				c2.505-6.253,7.894-34.59,10.85-44.442c2.955-9.852,6.296-20.54,19.167-30.384C138.132,651.096,146.967,642.442,154.013,651.096z
				"/>
			
				<linearGradient id="SVGID_00000165223066547576692840000014392367260691362974_" gradientUnits="userSpaceOnUse" x1="209.3589" y1="490.2961" x2="147.5042" y2="577.8444">
				<stop  offset="0" style="stop-color:#53EAC9"/>
				<stop  offset="0.9964" style="stop-color:#45AED8"/>
			</linearGradient>
			<path style="fill:url(#SVGID_00000165223066547576692840000014392367260691362974_);" d="M173.51,555.165
				c7.962-33.736-12.207-52.817-12.207-52.817c8.148-7.822,20.585-12.914,28.478-15.565c4.681-1.572,9.842-0.498,13.489,2.83
				c6.34,5.785,15.159,15.539,13.446,23.798c-1.538,7.421-15.552,44.449-15.552,44.449S188.207,563.992,173.51,555.165z"/>
			
				<linearGradient id="SVGID_00000070102475380760686630000016490021397318234808_" gradientUnits="userSpaceOnUse" x1="213.6314" y1="543.3771" x2="139.2292" y2="667.8084">
				<stop  offset="0" style="stop-color:#53EAC9"/>
				<stop  offset="0.9964" style="stop-color:#45AED8"/>
			</linearGradient>
			<path style="fill:url(#SVGID_00000070102475380760686630000016490021397318234808_);" d="M155.859,571.867
				c3.24-9.761,17.652-16.702,17.652-16.702c14.696,8.827,27.655,2.694,27.655,2.694s2.906,11.108,0.9,21.431
				c-2.006,10.323-14.59,76.665-14.59,76.665c-19.828,4.018-50.324-4.042-50.324-4.042
				C149.782,629.489,152.618,581.628,155.859,571.867z"/>
			
				<linearGradient id="SVGID_00000008854883962523345790000001349977493166702997_" gradientUnits="userSpaceOnUse" x1="-3867.1189" y1="522.3896" x2="-3862.2612" y2="486.8522" gradientTransform="matrix(-1 0 0 1 -3675.4333 0)">
				<stop  offset="0" style="stop-color:#F9B776"/>
				<stop  offset="1" style="stop-color:#F47960"/>
			</linearGradient>
			<path style="fill:url(#SVGID_00000008854883962523345790000001349977493166702997_);" d="M182.752,462.28l-6.473,29.075
				c-0.62,2.561,1.715,2.142,4.304,1.654c4.24-0.799,9.705-2.446,11.532-5.745c0.186-0.336,0.279-0.716,0.331-1.096l2.781-20.161
				c0.221-1.599-0.644-3.152-2.12-3.806l-5.366-2.379C185.675,458.904,183.283,460.083,182.752,462.28z"/>
			<g>
				
					<linearGradient id="SVGID_00000163757752871684936720000008767916259092659342_" gradientUnits="userSpaceOnUse" x1="-3996.3979" y1="75.4101" x2="-3954.0129" y2="-0.0208" gradientTransform="matrix(-0.9809 -0.1943 -0.1943 0.9809 -3705.0791 -370.8776)">
					<stop  offset="0" style="stop-color:#F9B776"/>
					<stop  offset="1" style="stop-color:#F47960"/>
				</linearGradient>
				<path style="fill:url(#SVGID_00000163757752871684936720000008767916259092659342_);" d="M195.15,435.775
					c0,0,6.891,4.665,9.852,16.544c2.961,11.879-1.851,16.141-6.784,15.879c-4.933-0.261-12.085-1.787-18.282-10.309
					C173.74,449.367,186.12,430.075,195.15,435.775z"/>
				
					<linearGradient id="SVGID_00000093146602951565667700000004675835349649367735_" gradientUnits="userSpaceOnUse" x1="-3987.2825" y1="9.7218" x2="-3966.0901" y2="62.8826" gradientTransform="matrix(-0.9809 -0.1943 -0.1943 0.9809 -3705.0791 -370.8776)">
					<stop  offset="0" style="stop-color:#2B3582"/>
					<stop  offset="1" style="stop-color:#150E42"/>
				</linearGradient>
				<path style="fill:url(#SVGID_00000093146602951565667700000004675835349649367735_);" d="M186.186,453.098
					c0,0-2.525-17.022,11.608-14.418l2.858,2.975c0,0,6.917-7.79-0.738-13.679s-18.278-4.381-24.156,6.34
					c-5.877,10.721-8.01,18.254-3.084,24.916c4.926,6.662,8.632,0.948,8.632,0.948s-2.259-5.766-0.385-8.24
					c1.875-2.474,4.293,1.439,4.293,1.439L186.186,453.098z"/>
				
					<linearGradient id="SVGID_00000047029062140486801250000008148969032780725176_" gradientUnits="userSpaceOnUse" x1="-3987.376" y1="80.4804" x2="-3944.9907" y2="5.0491" gradientTransform="matrix(-0.9809 -0.1943 -0.1943 0.9809 -3705.0791 -370.8776)">
					<stop  offset="0" style="stop-color:#F9B776"/>
					<stop  offset="1" style="stop-color:#F47960"/>
				</linearGradient>
				<path style="fill:url(#SVGID_00000047029062140486801250000008148969032780725176_);" d="M184.255,454.556
					c0,0-1.246-8.758-5.719-6.254c-4.473,2.504,1.612,8.181,4.052,10.113L184.255,454.556z"/>
			</g>
			<path style="opacity:0.44;fill:#FFFFFF;" d="M188.44,429.459c-3.036,0.995-5.748,2.813-8.211,4.823
				c-2.471,2.023-4.613,4.429-6.422,7.046c-1.811,2.619-3.271,5.479-4.289,8.492c-0.509,1.508-0.912,3.042-1.211,4.61
				c-0.305,1.569-0.561,3.173-1.047,4.747c-0.474,1.566-1.246,3.121-2.43,4.323c-1.157,1.221-2.579,2.106-4.005,2.878
				c-1.432,0.77-2.894,1.438-4.269,2.218c-1.381,0.766-2.641,1.701-3.762,2.797c-2.249,2.189-3.868,4.977-4.685,8.01
				c-0.434,1.523-0.764,3.112-1.337,4.671c-0.558,1.549-1.452,3.097-2.792,4.182c-1.316,1.105-2.9,1.767-4.478,2.222
				c-1.586,0.45-3.191,0.717-4.773,0.987c-3.156,0.498-6.231,1.32-9.162,2.55c-2.919,1.236-5.689,2.854-8.108,4.898
				c-2.418,2.035-4.487,4.512-5.89,7.336c-1.411,2.813-2.077,6.013-1.66,9.131c0.431,3.095,1.802,6.13,4.128,8.239
				c1.152,1.053,2.52,1.882,4.022,2.314c1.506,0.425,3.115,0.478,4.666,0.216c3.094-0.486,6.059-2.467,7.223-5.453l0.234,0.087
				c-1.14,3.113-4.176,5.234-7.378,5.803c-1.607,0.305-3.289,0.285-4.888-0.131c-1.602-0.426-3.07-1.275-4.307-2.362
				c-2.49-2.201-3.933-5.381-4.41-8.616c-0.461-3.27,0.22-6.642,1.667-9.572c1.441-2.95,3.564-5.522,6.042-7.639
				c2.481-2.125,5.313-3.804,8.3-5.094c2.99-1.281,6.163-2.151,9.351-2.675c1.583-0.282,3.153-0.556,4.658-0.995
				c1.497-0.443,2.937-1.069,4.085-2.049c1.159-0.968,1.962-2.28,2.499-3.74c0.549-1.457,0.89-3.022,1.346-4.586
				c0.877-3.168,2.617-6.123,4.997-8.401c1.184-1.143,2.536-2.129,3.972-2.911c1.428-0.795,2.898-1.454,4.301-2.197
				c1.398-0.743,2.746-1.577,3.814-2.69c1.09-1.092,1.803-2.493,2.271-3.989c0.476-1.497,0.742-3.074,1.06-4.656
				c0.314-1.587,0.74-3.165,1.27-4.698c1.063-3.071,2.572-5.978,4.439-8.631c1.898-2.628,4.125-5.025,6.672-7.022
				c2.54-1.984,5.31-3.762,8.422-4.712L188.44,429.459z"/>
			<path style="opacity:0.44;fill:#FFFFFF;" d="M171.352,451.484c-0.102,2.069-0.225,4.149-0.607,6.209
				c-0.374,2.053-0.977,4.115-2.095,5.952c-0.557,0.911-1.236,1.766-2.022,2.498c-0.783,0.735-1.64,1.365-2.501,1.959
				c-1.738,1.167-3.424,2.292-4.963,3.631c-3.07,2.631-5.648,5.926-6.457,9.867c-0.923,3.9-0.672,8.215-2.406,12.291
				c-0.879,2.018-2.343,3.758-4.048,5.079c-1.71,1.333-3.643,2.307-5.634,3.042c-4.013,1.449-8.173,1.959-12.161,2.867
				c-3.952,0.897-7.91,2.406-10.708,5.333c-1.354,1.442-2.55,3.23-2.574,5.222c-0.018,2.001,0.91,3.923,1.821,5.759l-0.22,0.118
				c-1.021-1.78-2.097-3.675-2.174-5.875c-0.032-1.089,0.255-2.181,0.73-3.143c0.471-0.969,1.09-1.847,1.792-2.654
				c2.898-3.212,7.024-4.88,11.049-5.913c4.048-1.069,8.186-1.554,11.97-2.987c1.884-0.713,3.684-1.648,5.233-2.879
				c1.551-1.227,2.813-2.769,3.583-4.562c1.608-3.614,1.439-7.869,2.427-12.011c0.484-2.084,1.381-4.117,2.63-5.857
				c1.227-1.762,2.748-3.28,4.388-4.605c1.626-1.341,3.426-2.473,5.155-3.568c1.732-1.098,3.298-2.365,4.376-4.065
				c1.119-1.666,1.795-3.622,2.247-5.615c0.452-2.001,0.686-4.058,0.917-6.115L171.352,451.484z"/>
			
				<linearGradient id="SVGID_00000010278406514182522210000015450176596170345893_" gradientUnits="userSpaceOnUse" x1="158.1977" y1="534.2166" x2="248.6814" y2="534.2166">
				<stop  offset="0" style="stop-color:#F9B776"/>
				<stop  offset="1" style="stop-color:#F47960"/>
			</linearGradient>
			<path style="fill:url(#SVGID_00000010278406514182522210000015450176596170345893_);" d="M161.168,502.646
				c0,0-12.686,51.165,14.377,60.891c27.063,9.726,61.736-15.223,61.736-15.223s5.92-2.96,9.303-2.114
				c3.383,0.846,2.96-11.84-3.383-15.223c-6.343-3.383-13.531,10.994-13.531,10.994s-59.469,29.627-54.048-21.34
				C175.622,520.631,183.579,503.492,161.168,502.646z"/>
		</g>
	</g>
</g>
</svg>
