<?xml version="1.0" encoding="utf-8"?>
<!-- Generator: Adobe Illustrator 27.5.0, SVG Export Plug-In . SVG Version: 6.00 Build 0)  -->
<svg version="1.1" xmlns="http://www.w3.org/2000/svg" xmlns:xlink="http://www.w3.org/1999/xlink" x="0px" y="0px"
	 viewBox="0 0 3500 2300" style="enable-background:new 0 0 3500 2300;" xml:space="preserve">
<g id="BG">
	<rect x="0" style="fill:#FFFFFF;" width="3500" height="2300"/>
</g>
<g id="cloud">
	<path style="fill:#D9F3FF;" d="M203.403,2044.923c270.584-111.331,536.797-557.24,412.502-921.085
		C400.21,492.442,1237.209,109.791,1684.159,556.74c283.549,283.549,969.341-158.26,1292.455,323.114
		c172.667,257.239-76.895,667.244-66.514,866.159c9.823,188.208,260.472,298.91,260.472,298.91H203.403z"/>
	<path d="M3331.42,2047.768H190.178c-2.823,0-5.112-2.289-5.112-5.112l0,0c0-2.823,2.289-5.112,5.112-5.112H3331.42
		c2.823,0,5.112,2.289,5.112,5.112l0,0C3336.532,2045.479,3334.243,2047.768,3331.42,2047.768z"/>
</g>
<g id="call_center">
	<g>
		<defs>
			<rect id="SVGID_1_" x="64.266" y="147.957" width="3228.785" height="1888.693"/>
		</defs>
		<clipPath id="SVGID_00000067207474928736349880000008520000783776175015_">
			<use xlink:href="#SVGID_1_"  style="overflow:visible;"/>
		</clipPath>
		<g style="clip-path:url(#SVGID_00000067207474928736349880000008520000783776175015_);">
			<g>
				<g>
					<g>
						<polygon style="fill:#FFA46E;" points="2600.774,1178.611 2540.951,1244.695 2436.044,1130.889 2507.052,1103.835 						"/>
						<g>
							<g>
								<g>
									<g>
										<path style="fill:#545454;" d="M2526.182,1196.698l-3.645,1.901l-36.236,18.906c-9.768,5.231-21.92,1.554-27.151-8.203
											c-30.942-77.901-67.587-149.554-113.234-211.385c-5.22-9.757-1.554-21.909,8.214-27.14l37.864-19.767l2.016-1.05
											c9.758-5.231,21.91-1.555,27.14,8.213c45.016,64.405,82.302,135.248,113.234,211.375
											C2539.616,1179.315,2535.94,1191.467,2526.182,1196.698z"/>
										<path style="fill:#333333;" d="M2424.858,1011.723l-46.177,24.185c-8.859,4.745-19.887,1.411-24.632-7.448l-15.821-29.534
											c-4.745-8.859-1.411-19.887,7.448-24.632l46.177-24.185c8.859-4.745,19.887-1.411,24.632,7.448l15.821,29.534
											C2437.051,995.949,2433.717,1006.977,2424.858,1011.723z"/>
										<path style="fill:#6E6E6E;" d="M2414.703,1011.879l-36.222,18.852c-7.636,4.091-17.143,1.216-21.234-6.42L2343,997.715
											c-4.091-7.636-1.216-17.143,6.42-21.234l36.222-18.852c7.636-4.091,17.143-1.216,21.234,6.42l14.247,26.596
											C2425.214,998.282,2422.339,1007.788,2414.703,1011.879z"/>
										<path style="fill:#333333;" d="M2524.135,1197.053l-46.177,24.185c-8.859,4.745-19.887,1.411-24.632-7.448l-15.821-29.534
											c-4.745-8.859-1.411-19.887,7.448-24.632l46.177-24.184c8.859-4.745,19.887-1.411,24.632,7.448l15.821,29.534
											C2536.328,1181.28,2532.994,1192.308,2524.135,1197.053z"/>
									</g>
									<path style="fill:#6E6E6E;" d="M2514.326,1197.855l-36.222,18.852c-7.636,4.091-17.143,1.216-21.234-6.42l-14.247-26.596
										c-4.091-7.636-1.216-17.143,6.42-21.234l36.222-18.852c7.636-4.091,17.143-1.216,21.234,6.42l14.247,26.596
										C2524.837,1184.258,2521.962,1193.765,2514.326,1197.855z"/>
								</g>
							</g>
						</g>
					</g>
					<path style="fill:#FFA46E;" d="M2437.76,1160.603c-3.615-0.803-36.55-20.082-7.631-70.69
						c20.886-1.607,23.141,25.18,19.279,32.132C2437.358,1143.734,2437.76,1160.603,2437.76,1160.603z"/>
					<path style="fill:#333333;" d="M2526.182,1196.698l-3.645,1.901c0.788-1.943,2.951-7.279,5.094-13.465
						c2.72-7.804-31.898-61.096-31.898-61.096s-37.002-5.094-54.312-39.04c-17.309-33.935-3.739-66.527-3.739-66.527
						s-17.981-31.562-26.132-49.554c-4.59-10.125-13.045-15.303-19.557-17.908l2.016-1.05c9.758-5.231,21.91-1.555,27.14,8.213
						c45.016,64.405,82.302,135.248,113.234,211.375C2539.616,1179.315,2535.94,1191.467,2526.182,1196.698z"/>
					<path style="fill:#FFA46E;" d="M2478.326,1115.619c9.748,5.134,20.189-1.994,28.918,0c4.495,1.027,5.333,7.838,9.238,10.443
						c19.681-27.714-18.246-98.212-51.054-113.427c-2.134-0.99-24.698,1.176-23.521,35.871
						C2442.644,1070.253,2468.578,1110.484,2478.326,1115.619z"/>
				</g>
				<path style="fill:#FFFFFF;" d="M2872.656,1401.554c-0.008,0.023-0.008,0.053-0.015,0.076c-0.949,5.227-2.484,10.378-4.68,15.378
					c-10.242,23.424-34.782,43.428-80.36,51.064c-70.673,5.356-174.1,9.725-266.131,16.305c-26.448,1.892-51.96,3.966-75.475,6.298
					c-97.349-25.118-155.775-173.88-41.666-205.433c12.909-3.571,66.388-4.596,131.926-2.88
					c119.169,3.108,278.188,15.279,305.616,37.685C2863.493,1337.703,2878.21,1370.806,2872.656,1401.554z"/>
				<g>
					<g>
						<path style="fill:#FFA46E;" d="M2370.761,1297.425c-58.281,46.994-140.719,59.382-201.969,3.973
							c0.595-30.731,9.108-122.33,7.03-152.215l189.99,25.625C2367.265,1210.839,2369.298,1261.246,2370.761,1297.425z"/>
						<path style="fill:#D46C42;" d="M2366.361,1182.989c-0.109-2.75-0.208-5.573-0.309-8.181h-140.305l-42.411,8.932
							c0,0,60.142,99.292,187.159,113.898C2368.988,1255.751,2367.14,1204.285,2366.361,1182.989z"/>
					</g>
					<g>
						
							<ellipse transform="matrix(0.9988 -0.0497 0.0497 0.9988 -47.9417 120.0492)" style="fill:#FFA46E;" cx="2392.402" cy="1025.005" rx="23.385" ry="29.642"/>
						<path style="fill:#FFA46E;" d="M2375.562,934.896c-0.943,3.217,39.978,150.382,34.915,187.132
							c-42.697,110.123-114.895,149.414-232.262,65.578c-17.291-20.103-70.853-131.983-71.791-133.042
							C2028.467,903.484,2317.224,776.395,2375.562,934.896z"/>
						<path d="M2348.049,900.792c25.161,5.887,33.951,73.667,41.24,94.342l1.38-3.921c6.34-282.295-463.051-141.461-271.436,88.718
							c13.885,8.482,28.816,36.387,37.2,56.566c-2.246-13.726,13.91-55.638,8.242-86.682c0,0-33.314-42.083-23.086-82.5
							c6.269-24.77,59.327-17.221,104.491-33.662C2292.036,916.926,2329.966,893.976,2348.049,900.792z"/>
						<path d="M2238.841,1048.763c5.662,15.642-10.496,21.57-16.293,5.978C2216.886,1039.099,2233.044,1033.172,2238.841,1048.763z"
							/>
						<path d="M2365.697,1002.77c5.662,15.642-10.496,21.57-16.293,5.978C2343.742,993.106,2359.899,987.178,2365.697,1002.77z"/>
						<path style="fill:#C75038;" d="M2329.891,1108.71c31.665-10.094-13.551-46.578-22.882-56.009c0,0.001-7.64-20.82-7.64-20.82
							c-0.508-1.384-2.042-2.095-3.426-1.587c-1.385,0.508-2.095,2.042-1.587,3.426l8.107,22.094
							c14.433,12.574,34.856,34.263,33.459,41.476c-3.358,11.916-33.556,6.783-32.415,12.371
							C2303.284,1114.966,2320.146,1111.598,2329.891,1108.71z"/>
						<path style="fill:#C75038;" d="M2329.489,1158.154c8.364-3.069,13.941-5.551,14.753-5.917c3.153-1.372,0.963-6.34-2.192-4.869
							c-0.739,0.333-74.009,32.913-102.704,11.507c-1.183-0.882-2.855-0.635-3.737,0.543
							C2247.309,1183.931,2309.52,1165.629,2329.489,1158.154z"/>
						<path d="M2200.258,1037.4c-23.741-0.933,16.364-37.01,39.888-28.075c2.89,0.583,4.759,3.401,4.173,6.292
							c-0.586,2.89-3.402,4.759-6.295,4.173C2210.664,1015.656,2205.916,1034.811,2200.258,1037.4z"/>
						<path d="M2324.74,990.269c-20.715,0.834,7.787-34.019,40.487-26.428c2.892,0.585,4.759,3.403,4.173,6.294
							c-0.586,2.89-3.405,4.758-6.293,4.172C2335.814,970.043,2330.101,987.822,2324.74,990.269z"/>
						<path d="M2079.628,931.778c0,0,54.522-118.534,164.411-148.049c109.888-29.516,86.608,40.258,86.608,40.258
							c115.505-18.09-59.926,108.07-106.207,117.431C2182.653,952.901,2077.054,966.415,2079.628,931.778z"/>
						<g>
							
								<ellipse transform="matrix(0.7938 -0.6081 0.6081 0.7938 -232.5994 1527.5133)" style="fill:#FFA46E;" cx="2136.638" cy="1106.819" rx="33.975" ry="43.065"/>
							<path style="fill:#C75038;" d="M2148.973,1128.178c-1.396,0.512-2.991-0.076-3.701-1.428
								c-10.906-20.743-19.125-24.555-23.054-24.98c-4.057-0.439-6.388,2.269-6.486,2.384c-1.064,1.261-2.956,1.449-4.229,0.402
								c-1.275-1.047-1.483-2.909-0.452-4.197c0.174-0.217,4.336-5.3,11.637-4.599c9.154,0.879,18.546,10.362,27.917,28.185
								c0.774,1.473,0.208,3.295-1.265,4.069C2149.22,1128.078,2149.098,1128.133,2148.973,1128.178z"/>
						</g>
					</g>
				</g>
				<g>
					<g id="_x30_3_1_">
						<g>
							<path style="fill:#9EDDFF;" d="M1989.535,2095.912c-2.494,29.19-5.047,59.697-7.516,90.161h469.927l3.384-884.85
								c-24.045-5.088-56.327-17.553-88.969-20.253c-20.496,21.989-32.817,37.347-67.7,38.128
								c-21.572,0.469-53.454-10.656-74.367-39.917c-167.407,16.487-254.33,75.11-254.33,75.11l77.196,536.151
								C2047.159,1890.442,1998.924,1986.054,1989.535,2095.912z"/>
							<path style="fill:#204F63;" d="M2555.492,2186.073l-4.12-41.831c-134.706,39.49-419.258,48.331-562.999,0
								c-1.237,14.475-2.488,28.392-3.737,41.831H2555.492z"/>
							<g>
								<g>
									<polygon style="fill:#3086B3;" points="2319.289,1394.365 2349.709,1355.098 2300.565,1320.211 2247.931,1353.77 
										2279.028,1394.365 									"/>
									<path style="fill:#3086B3;" d="M2403.368,1965.079l-61.038,100.438l-58.517-97.26
										c13.964-179.245,7.568-410.618-4.383-599.159l41.61,0.276C2360.418,1561.15,2393.232,1788.206,2403.368,1965.079z"/>
								</g>
								<path style="fill:#5BB9EB;" d="M2391.692,1284.061l-21.717-22.595c-1.846,22.952-44.367,52.685-69.411,58.745
									c22.516,19.178,39.908,33.705,62.545,68.64L2391.692,1284.061z"/>
								<path style="fill:#5BB9EB;" d="M2141.961,1287.598l32.671-41.217c0,0,65.513,48.964,125.933,73.83
									c-27.057,20.381-39.414,41.361-55.639,68.64L2141.961,1287.598z"/>
							</g>
							<path style="fill:#FFFFFF;" d="M1950.433,2186.073h264.316c35.391-310.364,0.211-610.099-76.545-896.479
								c-145.548,21.738-169.405,64.699-169.405,64.699l62.847,548.021L1950.433,2186.073z"/>
							<path style="fill:#FFFFFF;" d="M2435.406,2186.073h136.722l-35.549-386.378l-23.539-474.934
								c-66.714-31.949-87.871-35.514-123.511-42.929C2438.312,1597.906,2455.329,1897.536,2435.406,2186.073z"/>
						</g>
					</g>
				</g>
				<path style="fill:#276C9C;" d="M2219.982,2017.922c0.126-0.03,0.255-0.057,0.379-0.088c30.705-7.428,7.48-164.279,7.48-164.279
					c-47.048,9.905-98.604,164.279-98.604,164.279s0.257,0.032,0.738,0.088H2219.982z"/>
				<path style="fill:#D9F1FF;" d="M2117.703,1493.992l-76.406,257.003l183.509,105.92
					c-78.67,22.765-107.255,101.388-139.678,175.731l-222.21-177.522l136.462-416.026L2117.703,1493.992z"/>
				<g>
					<path style="fill:#FFA46E;" d="M2375.679,2019.733l-176.904-0.494l-47.505-0.136c-11.606-24.829-17.929-51.623,12.404-92.049
						c0,0,7.489-0.714,18.979-1.712c26.184-2.279,73.154-6.039,99.622-6.186C2343.708,1918.808,2375.679,2019.733,2375.679,2019.733
						z"/>
					<path style="fill:#D17743;" d="M2198.775,2019.239l-47.505-0.136c-11.606-24.829-17.929-51.623,12.404-92.049
						c0,0,7.489-0.714,18.979-1.712C2180.185,1941.033,2174.597,1991.364,2198.775,2019.239z"/>
					<path style="fill:#FFA46E;" d="M2287.425,1919.491c1.881,0,55.163-3.134,73.341,10.656
						c18.179,13.791,35.104,45.76,35.104,45.76s-3.134,6.895-18.178,1.88s-29.462-28.208-29.462-28.208l-53.909-3.761
						L2287.425,1919.491z"/>
					<path style="fill:#D66D2D;" d="M2353.718,2019.953c-0.265,0-0.5-0.188-0.553-0.457c-10.854-56.242-57.166-68.538-57.632-68.656
						c-0.302-0.076-0.485-0.383-0.409-0.684c0.077-0.302,0.383-0.487,0.684-0.409c0.474,0.119,47.476,12.597,58.465,69.536
						c0.059,0.306-0.142,0.601-0.447,0.661C2353.79,2019.949,2353.754,2019.953,2353.718,2019.953z"/>
					<path style="fill:#D66D2D;" d="M2329.738,2019.625c-0.226,0-0.439-0.136-0.525-0.359c-9.159-23.51-50.998-39.831-51.419-39.993
						c-0.291-0.112-0.436-0.438-0.324-0.728c0.112-0.291,0.439-0.434,0.728-0.324c0.427,0.163,42.726,16.661,52.065,40.635
						c0.114,0.29-0.03,0.617-0.32,0.73C2329.875,2019.613,2329.807,2019.625,2329.738,2019.625z"/>
				</g>
				<path style="fill:#FFFFFF;" d="M1968.799,1356.81c-3.832,1.182-278.885,406.002-195.291,532.99
					c30.339,46.088,384.76,143.409,384.76,143.409c-16.577-45.857,0.504-103.416,69.869-179.153
					c-6.616,0-238.936-85.696-238.936-85.696s137.19-259.456,139.395-327.821C2130.802,1372.175,2047.175,1332.623,1968.799,1356.81
					z"/>
				<path style="fill:#FFFFFF;" d="M2581.458,1140.703c0,0,260.388,160.435,282.695,201.054
					c27.182,49.495,3.312,125.977-88.566,119.921c-91.878-6.056-266.578-209.618-266.578-209.618L2581.458,1140.703z"/>
				<path style="fill:#D9F1FF;" d="M2675.27,1408.201c-65.188-38.803-165.521-153.009-166.528-154.158l3.43-3.003
					c1.001,1.144,100.863,114.81,165.43,153.243L2675.27,1408.201z"/>
				<path style="fill:#F2FAFF;" d="M2867.96,1417.007c-10.242,23.424-34.782,43.428-80.36,51.064
					c-70.673,5.356-174.1,9.725-266.131,16.305c-4.316-24.693-10.333-60.325-10.333-60.325s126.007,34.501,234.084,30.056
					c48.557-1.991,93.489-11.845,121.745-36.218C2867.3,1417.6,2867.634,1417.311,2867.96,1417.007z"/>
				<polygon style="fill:#333333;" points="2519.629,1223.091 2507.235,1229.75 2492.89,1211.876 2512.641,1201.264 				"/>
				<path style="fill:#333333;" d="M2523.296,1293.966c-0.496,0-0.994-0.174-1.395-0.53c-0.867-0.771-0.945-2.099-0.174-2.966
					c11.245-12.65-8.193-61.963-16.632-79.896c-0.494-1.049-0.043-2.301,1.006-2.795c1.05-0.495,2.301-0.044,2.795,1.006
					c1.287,2.734,31.347,67.177,15.971,84.477C2524.451,1293.728,2523.875,1293.966,2523.296,1293.966z"/>
				<path style="fill:#333333;" d="M2521.327,1302.443c-0.688,0-1.362-0.337-1.765-0.958c-0.631-0.973-0.353-2.274,0.621-2.906
					l20.337-13.182c0.972-0.631,2.273-0.354,2.906,0.621c0.631,0.973,0.353,2.274-0.62,2.906l-20.337,13.182
					C2522.115,1302.334,2521.719,1302.443,2521.327,1302.443z"/>
				<path style="fill:#333333;" d="M2522.839,1309.245c-0.688,0-1.362-0.337-1.765-0.958c-0.631-0.973-0.353-2.274,0.621-2.906
					l20.337-13.182c0.971-0.632,2.273-0.354,2.906,0.621c0.631,0.973,0.353,2.274-0.621,2.906l-20.337,13.182
					C2523.627,1309.137,2523.231,1309.245,2522.839,1309.245z"/>
				<path style="fill:#333333;" d="M2524.351,1316.048c-0.688,0-1.362-0.337-1.765-0.958c-0.631-0.973-0.353-2.274,0.621-2.906
					l20.337-13.182c0.972-0.632,2.273-0.354,2.906,0.621c0.631,0.973,0.353,2.274-0.621,2.906l-20.337,13.182
					C2525.139,1315.939,2524.743,1316.048,2524.351,1316.048z"/>
				<path style="fill:#333333;" d="M2525.862,1322.85c-0.688,0-1.363-0.337-1.765-0.958c-0.631-0.973-0.353-2.274,0.621-2.906
					l20.338-13.181c0.971-0.631,2.274-0.354,2.906,0.621c0.631,0.973,0.353,2.274-0.621,2.906l-20.338,13.181
					C2526.65,1322.742,2526.254,1322.85,2525.862,1322.85z"/>
				<path style="fill:#333333;" d="M2527.374,1329.653c-0.688,0-1.362-0.337-1.765-0.958c-0.631-0.973-0.353-2.274,0.621-2.906
					l20.337-13.181c0.972-0.631,2.273-0.354,2.906,0.621c0.631,0.973,0.353,2.274-0.621,2.906l-20.337,13.181
					C2528.162,1329.544,2527.766,1329.653,2527.374,1329.653z"/>
				<path style="fill:#333333;" d="M2528.885,1336.456c-0.688,0-1.362-0.337-1.765-0.958c-0.631-0.973-0.353-2.274,0.621-2.906
					l20.337-13.182c0.971-0.631,2.273-0.354,2.906,0.62c0.631,0.974,0.353,2.274-0.621,2.906l-20.337,13.182
					C2529.673,1336.347,2529.277,1336.456,2528.885,1336.456z"/>
				<path style="fill:#333333;" d="M2530.397,1343.259c-0.688,0-1.362-0.337-1.765-0.958c-0.631-0.973-0.353-2.274,0.62-2.906
					l20.338-13.182c0.972-0.632,2.273-0.354,2.906,0.621c0.631,0.973,0.353,2.274-0.621,2.906l-20.337,13.182
					C2531.185,1343.15,2530.789,1343.259,2530.397,1343.259z"/>
				<path style="fill:#333333;" d="M2531.909,1350.061c-0.688,0-1.362-0.337-1.765-0.958c-0.631-0.973-0.353-2.274,0.621-2.906
					l20.337-13.182c0.971-0.632,2.273-0.353,2.906,0.621c0.631,0.973,0.353,2.274-0.62,2.906l-20.338,13.182
					C2532.697,1349.952,2532.301,1350.061,2531.909,1350.061z"/>
				<path style="fill:#333333;" d="M2533.421,1356.863c-0.688,0-1.362-0.337-1.765-0.958c-0.631-0.973-0.353-2.274,0.621-2.906
					l20.337-13.182c0.972-0.631,2.273-0.353,2.906,0.621c0.631,0.973,0.353,2.274-0.62,2.906l-20.338,13.182
					C2534.209,1356.755,2533.813,1356.863,2533.421,1356.863z"/>
				<path style="fill:#333333;" d="M2534.932,1363.666c-0.688,0-1.362-0.337-1.765-0.958c-0.631-0.973-0.353-2.274,0.62-2.906
					l20.338-13.181c0.971-0.631,2.272-0.354,2.906,0.62c0.631,0.973,0.353,2.274-0.62,2.906l-20.337,13.181
					C2535.72,1363.557,2535.324,1363.666,2534.932,1363.666z"/>
				<path style="fill:#333333;" d="M2536.444,1370.468c-0.688,0-1.362-0.337-1.765-0.958c-0.631-0.973-0.353-2.274,0.621-2.906
					l20.337-13.181c0.972-0.632,2.273-0.354,2.906,0.62c0.631,0.973,0.353,2.274-0.62,2.906l-20.338,13.181
					C2537.232,1370.359,2536.836,1370.468,2536.444,1370.468z"/>
				<path style="fill:#333333;" d="M2537.956,1377.271c-0.688,0-1.362-0.337-1.765-0.958c-0.631-0.973-0.353-2.274,0.621-2.906
					l20.337-13.181c0.971-0.632,2.273-0.353,2.906,0.62c0.631,0.973,0.353,2.274-0.621,2.906l-20.337,13.181
					C2538.744,1377.162,2538.348,1377.271,2537.956,1377.271z"/>
				<path style="fill:#333333;" d="M2539.468,1384.074c-0.688,0-1.362-0.337-1.765-0.958c-0.631-0.973-0.353-2.274,0.621-2.906
					l20.337-13.182c0.972-0.631,2.273-0.353,2.906,0.621c0.631,0.973,0.353,2.274-0.621,2.906l-20.337,13.182
					C2540.255,1383.965,2539.86,1384.074,2539.468,1384.074z"/>
				<path style="fill:#333333;" d="M2540.979,1390.876c-0.688,0-1.362-0.337-1.765-0.958c-0.631-0.973-0.353-2.274,0.621-2.906
					l20.337-13.182c0.971-0.631,2.273-0.354,2.906,0.621c0.631,0.973,0.353,2.274-0.621,2.906l-20.337,13.182
					C2541.767,1390.768,2541.371,1390.876,2540.979,1390.876z"/>
				<path style="fill:#333333;" d="M2542.49,1397.679c-0.688,0-1.362-0.337-1.765-0.958c-0.631-0.973-0.353-2.274,0.621-2.906
					l20.338-13.182c0.972-0.631,2.273-0.354,2.906,0.621c0.631,0.973,0.353,2.274-0.621,2.906l-20.338,13.182
					C2543.278,1397.57,2542.882,1397.679,2542.49,1397.679z"/>
				<path style="fill:#333333;" d="M2544.002,1404.481c-0.688,0-1.362-0.337-1.765-0.958c-0.631-0.973-0.353-2.274,0.621-2.906
					l20.337-13.182c0.971-0.632,2.272-0.354,2.906,0.621c0.631,0.973,0.353,2.274-0.621,2.906l-20.337,13.182
					C2544.79,1404.372,2544.394,1404.481,2544.002,1404.481z"/>
				<path style="fill:#333333;" d="M2568.772,1663.479c-0.133,0-0.269-0.012-0.405-0.039c-1.139-0.223-1.881-1.326-1.659-2.465
					c23.865-121.978,13.184-230.85-0.585-249.483c-5.706-7.724-14.421-2.949-14.789-2.742c-1.01,0.57-2.292,0.209-2.861-0.801
					c-0.569-1.011-0.21-2.292,0.801-2.861c4.238-2.383,13.919-4.633,20.228,3.907c13.628,18.443,26.451,124.385,1.329,252.786
					C2570.635,1662.783,2569.756,1663.479,2568.772,1663.479z"/>
			</g>
			<g>
				<path style="fill:#C95138;" d="M1130.08,982.251c0,0,2.066,207.637,160.118,227.265
					c141.524,4.132,215.823,11.856,157.943-267.797C1413.019,816.723,1132.146,847.958,1130.08,982.251z"/>
				<path style="fill:#9EDDFF;" d="M1580.5,2107.451h-570.994l39.302-781.756c158.132-65.71,321.25-56.174,492.389,0
					L1580.5,2107.451z"/>
				<path style="fill:#66C2F5;" d="M1182.493,1397.689c0,6.826-21.535,307.598,59.005,427.727
					c80.541,120.128-105.112,288.035-105.112,288.035C963.019,2054.751,1069.19,1352.641,1182.493,1397.689z"/>
				<g>
					<path style="fill:#F7A594;" d="M1384.398,1311.529c0,0-16.703,63.167-84.435,66.016c-67.726,2.849-88.503-66.016-88.503-66.016
						l14.457-113.958l8.67-68.318h126.684l14.192,111.853L1384.398,1311.529z"/>
					<path style="fill:#DE7964;" d="M1375.464,1241.106c-61.259,10.513-116.468-14.499-149.546-43.535l8.67-68.318h126.684
						L1375.464,1241.106z"/>
					<path style="fill:#80D3FF;" d="M1216.619,1235.957c0,4.38,78.84,139.284,78.84,139.284s-68.328,46.428-68.328,42.924
						c0-3.504-32.412-128.772-32.412-128.772L1216.619,1235.957z"/>
					<path style="fill:#80D3FF;" d="M1379.555,1242.965c0,4.38-85.848,134.028-85.848,134.028s63.072,51.684,63.072,48.18
						s44.676-128.772,44.676-128.772L1379.555,1242.965z"/>
				</g>
				<path style="fill:#FFFFFF;" d="M1143.078,2182.885l-198.96-12.475l76.554-394.463l-0.114-1.975l-6.032-104.354l-2.401-41.559
					l-6.937-120.089l-6.359-110.052l-2.652-45.92c0,0,38.209-24.335,89.774-44.462c29.995-11.708,64.512-22.003,98.648-25.255
					C1176.211,1673.014,1198.009,1891.348,1143.078,2182.885z"/>
				<g>
					<path style="fill:#FFFFFF;" d="M1124.921,1577.718c-20.058,20.172-42.782,41.901-70.02,63.182
						c-12.46,9.733-25.855,19.367-40.374,28.719c-42.304,27.238-94.112,52.021-159.786,69.602
						c-7.256,2.773-14.147,3.989-20.605,3.837c-51.079-1.147-75.285-87.457-43.953-162.24c10.006-23.887,25.68-46.604,47.957-64.99
						l160.691-117.908l71.752-52.652c0.068-0.038,0.137-0.068,0.205-0.106C1146.544,1306.428,1215.531,1499.439,1124.921,1577.718z"
						/>
					<path style="fill:#D9F1FF;" d="M1066.7,1595.169l-11.799,45.73l-34.341,133.073l-6.032-104.354
						c-42.304,27.238-94.112,52.021-159.786,69.602c-7.256,2.773-14.147,3.989-20.605,3.837
						c-51.079-1.147-75.285-87.457-43.953-162.24c2.75,46.84,14.117,87.761,43.785,96.992c25.764,8.016,60.857,1.064,95.974-11.609
						c29.152-10.53,58.319-25.004,82.184-38.14C1044.203,1610.41,1066.7,1595.169,1066.7,1595.169z"/>
				</g>
				<path style="fill:#FFFFFF;" d="M1412.591,1289.818c92.812,8.839,177.116,54.642,177.116,54.642l-23.796,431.485l76.554,394.463
					h-261.207C1399.104,2013.399,1445.755,1659.193,1412.591,1289.818z"/>
				<path style="fill:#FFFFFF;" d="M1587.171,1343.337c0,0,113.98,172.964,133.062,453.159
					c5.266,77.323-169.856,345.387-169.856,345.387h-201.73l198.528-305.797c0,0-140.581-284.683-100.556-377.543
					C1486.644,1365.684,1541.886,1321.635,1587.171,1343.337z"/>
				<polygon style="fill:#D9F1FF;" points="1353.583,2137.793 1350.54,2135.879 1559.405,1804.069 1492.74,1619.58 
					1496.121,1618.36 1563.381,1804.497 1562.914,1805.24 				"/>
				<path style="fill:#D9F1FF;" d="M1219.289,1236.103c-9.807,96.986-36.991,489.023-36.991,489.023
					c-60.022-131.409-86.943-226.783-86.943-226.783l43.589-46.858l-69.911-116.363
					C1117.184,1268.495,1219.289,1236.103,1219.289,1236.103z"/>
				<path style="fill:#D9F1FF;" d="M1376.32,1236.807c4.929,105.626,53.736,248.266,44.13,484.868
					c60.022-131.409,77.969-224.541,77.969-224.541l-43.589-46.858l69.911-116.363
					C1487.604,1278.412,1376.32,1236.807,1376.32,1236.807z"/>
				<g>
					<path style="fill:#C95138;" d="M1421.357,1656.438c0,0-170.887-48.42-128.91-195.108
						c20.711-72.368,143.961-107.013,76.584-217.696c-0.296-0.494-0.6-0.995-0.912-1.497l-9.195-81.519
						c0,0,63.815-15.114,87.326-46.182c-17.562,47.021,2.511,70.564,12.835,80.418c40.569,38.725,83.297,79.676,83.905,149.37
						C1544.153,1476.621,1409.573,1473.608,1421.357,1656.438z"/>
				</g>
				<g>
					<path style="fill:#F7A594;" d="M1429.511,1046.035c30.312,39.785-29.24,152.247-130.953,152.595
						c-64.171-2.551-165.414-63.122-139.217-189.504c-18.339-105.451,46.633-205.089,139.217-205.089
						C1391.142,804.038,1450.143,934.853,1429.511,1046.035z"/>
					<circle style="fill:#F7A594;" cx="1443.238" cy="1040.442" r="30.365"/>
					<path style="fill:#C95138;" d="M1368.352,879.727c-43.55,87.095-203.239,127.263-203.239,127.263l-25.229,3.648l-7.037,1.02
						c0,0-13.35-76.391,35.24-146.487c48.596-70.096,125.933-63.727,125.933-63.727s15.521-0.519,32.977,3.234
						C1355.824,810.874,1389.95,828.713,1368.352,879.727z"/>
					<path style="fill:#F56245;" d="M1326.996,804.678c-52.312,7.513-102.213,24.685-139.333,63.69
						c-33.607,35.314-44.515,108.619-47.78,142.27l-7.037,1.02c0,0-13.35-76.391,35.24-146.487
						c48.596-70.096,125.933-63.727,125.933-63.727S1309.54,800.924,1326.996,804.678z"/>
					<path style="fill:#C95138;" d="M1301.795,876.934c-25.748-58.315-5.079-74.852-5.079-74.852s77.335-6.372,125.931,63.726
						s18.732,143.761,18.732,143.761S1324.199,1029.928,1301.795,876.934z"/>
					<g>
						<circle style="fill:#F7A594;" cx="1150.86" cy="1038.788" r="30.365"/>
						<g>
							<g>
								<path d="M1161.875,1082.81c0,0,25.135,45.221,73.924,57.355c2.688,0.668,4.332,3.384,3.723,6.086l0,0
									c-0.625,2.773-3.386,4.511-6.154,3.863c-14.196-3.322-54.167-17.214-79.919-61.862L1161.875,1082.81z"/>
								
									<ellipse transform="matrix(0.9538 -0.3005 0.3005 0.9538 -266.3125 395.184)" cx="1151.689" cy="1063.443" rx="19.384" ry="26.578"/>
								
									<ellipse transform="matrix(0.9538 -0.3005 0.3005 0.9538 -267.3181 393.1303)" style="fill:#FFFFFF;" cx="1144.523" cy="1065.695" rx="20.499" ry="28.107"/>
								<path style="fill:#B8E5FF;" d="M1152.522,1064.038c2.688,8.534-0.178,17.042-6.402,19.003
									c-6.224,1.961-13.45-3.368-16.138-11.902c-2.688-8.534,0.178-17.042,6.402-19.003
									C1142.609,1050.175,1149.834,1055.504,1152.522,1064.038z"/>
							</g>
							<path d="M1168.817,1075.575c-0.119,0-0.238-0.01-0.359-0.03c-1.178-0.197-1.975-1.312-1.778-2.491
								c3.475-20.849-4.195-43.576-13.294-52.674c-10.597-10.599-23.744-2.148-24.299-1.784c-0.998,0.656-2.34,0.382-2.997-0.613
								c-0.658-0.995-0.389-2.335,0.605-2.995c0.166-0.11,16.626-10.793,29.751,2.331c10.074,10.074,18.253,33.943,14.502,56.447
								C1170.772,1074.825,1169.855,1075.575,1168.817,1075.575z"/>
						</g>
					</g>
					<path style="fill:#A33A23;" d="M1158.082,1007.387c0,0,142.37-35.168,176.578-117.453c21.573-56.706-13.252-86.6-13.252-86.6
						s35.074,13.755,33.9,72.424C1353.468,967.732,1158.082,1007.387,1158.082,1007.387z"/>
					<g>
						<path style="fill:#BA4228;" d="M1292.776,1085.997c-4.885,0-15.565-0.572-17.154-5.48
							c-1.893-5.845,14.951-51.621,18.347-60.737c0.292-0.787,1.17-1.188,1.954-0.894c0.787,0.293,1.187,1.168,0.893,1.954
							c-9.799,26.312-19.326,55.478-18.303,58.741c0.852,2.632,10.098,3.554,16.094,3.347c0.017,0,0.035-0.001,0.053-0.001
							c0.814,0,1.489,0.646,1.517,1.467c0.03,0.839-0.627,1.542-1.465,1.571C1294.291,1085.98,1293.621,1085.997,1292.776,1085.997z
							"/>
						<path style="fill:#A33A23;" d="M1264.41,1129.954c0,0,52.041,5.596,95.689-19.026
							C1348.348,1159.052,1295.187,1184.233,1264.41,1129.954z"/>
						<path d="M1223.529,1041.978L1223.529,1041.978c-3.794,0-6.899-3.104-6.899-6.899v-13.797c0-3.794,3.104-6.899,6.899-6.899l0,0
							c3.794,0,6.899,3.104,6.899,6.899v13.797C1230.428,1038.873,1227.324,1041.978,1223.529,1041.978z"/>
						<path d="M1370.21,1043.101L1370.21,1043.101c-3.794,0-6.899-3.104-6.899-6.899v-13.797c0-3.794,3.104-6.899,6.899-6.899l0,0
							c3.794,0,6.899,3.104,6.899,6.899v13.797C1377.109,1039.997,1374.005,1043.101,1370.21,1043.101z"/>
						<path style="fill:#F79985;" d="M1386.837,1058.499c0,3.18-7.733,5.757-17.272,5.757s-17.272-2.578-17.272-5.757
							c0-3.18,7.733-5.757,17.272-5.757S1386.837,1055.319,1386.837,1058.499z"/>
						<path style="fill:#F79985;" d="M1241.649,1058.499c0,3.18-7.733,5.757-17.272,5.757c-9.539,0-17.272-2.578-17.272-5.757
							c0-3.18,7.733-5.757,17.272-5.757C1233.916,1052.742,1241.649,1055.319,1241.649,1058.499z"/>
					</g>
					<path style="fill:#BA4228;" d="M1436.135,1057.118C1436.135,1057.118,1436.135,1057.118,1436.135,1057.118
						c-0.84,0-1.519-0.68-1.519-1.519c0-0.956,0.16-23.465,14.161-27.222c0.812-0.219,1.643,0.264,1.862,1.074
						c0.218,0.811-0.264,1.644-1.074,1.862c-11.753,3.154-11.909,24.076-11.91,24.287
						C1437.654,1056.439,1436.974,1057.118,1436.135,1057.118z"/>
				</g>
				<g>
					<g>
						<polygon style="fill:#F7A594;" points="1018.703,1395.435 962.57,1331.64 1061.173,1238.733 1106.697,1267.354 						"/>
					</g>
					<g>
						<path style="fill:#F7A594;" d="M1058.691,1242.331c0.478-5.48,20.861-103.634,19.436-101.311
							c20.263-25.739,64.427,6.31,66.126,47.852c0,0-18.751,70.589-43.43,85.123
							C1056.29,1299.93,1058.691,1242.331,1058.691,1242.331z"/>
					</g>
					<path style="fill:#F7A594;" d="M1078.056,1140.811c0,0,36.073-99.845,37.131-99.339c1.059,0.507,10.173,2.396,8.697,17.174
						c-1.477,14.777-25.935,96.094-25.935,96.094L1078.056,1140.811z"/>
					<path style="fill:#F7A594;" d="M1094.583,1148.969c0,0,53.159-89.79,54.161-89.063c1.001,0.727,10.092,4.426,5.741,19.467
						s-38.258,81.139-38.258,81.139L1094.583,1148.969z"/>
					<path style="fill:#F7A594;" d="M1098.65,1165.346c1.599-2.861,34.698-29.176,42.233-32.606
						c7.535-3.429,49.267-4.14,49.267-4.14s2.124,11.812-13.853,13.284c-15.977,1.472-27.468,8.513-27.468,8.513l-26.173,43.146
						L1098.65,1165.346z"/>
					<path style="fill:#F7A594;" d="M1121.7,1192.726c0,0,9.225-31.35,29.618-33.166c19.521-1.738,41.797,18.188,41.797,18.188
						s-0.488,6.962-14.087,4.477c-13.599-2.484-17.102-5.982-17.102-5.982l-13.894,4.104l-11.019,31.955L1121.7,1192.726z"/>
				</g>
				<g>
					<path style="fill:#FFFFFF;" d="M1021.952,1231.219c-8.917-4.736-17.899-9.449-27.083-13.693L843.892,1498.51l-47.206,64.515
						c-60.576,98.085,20.456,237.602,157.166,109.498c25.814-24.189,33.091-55.15,33.091-55.15l38.094-94.537l62.057-154.021
						l49.726-67.858C1100.189,1275.08,1061.555,1252.254,1021.952,1231.219z"/>
					<path style="fill:#D9F1FF;" d="M952.469,1658.691l-2.89-2.135c10.968-14.839,19.185-31.603,27.131-47.815
						c1.684-3.436,3.365-6.865,5.068-10.271c10.478-20.207,19.636-39.249,28.836-59.95c5.314-12.221,10.633-24.374,15.934-36.482
						c17.795-40.651,34.603-79.047,50.903-119.215l0.169-0.321c12.86-19.289,26.615-38.397,39.917-56.875
						c5.535-7.69,11.259-15.641,16.779-23.415l2.929,2.08c-5.526,7.784-11.254,15.739-16.793,23.434
						c-13.248,18.404-26.947,37.433-39.741,56.617c-16.299,40.156-33.875,80.306-50.871,119.135
						c-5.3,12.105-10.618,24.255-15.936,36.488c-9.236,20.781-18.426,39.884-28.924,60.132c-1.687,3.376-3.364,6.796-5.044,10.223
						C971.92,1626.678,963.63,1643.591,952.469,1658.691z"/>
				</g>
			</g>
		</g>
	</g>
	<g>
		<g>
			<path style="fill:#5FB38C;" d="M1799.764,1871.193c-8.601,15.465-19.706,31.022-33.834,46.431c0,0-29.505-48.903-34.775-113.628
				c-4.04-49.646,6.18-108.604,54.908-161.94C1786.064,1642.055,1865.032,1753.889,1799.764,1871.193z"/>
			<path style="fill:#379168;" d="M1799.764,1871.193c-8.601,15.465-19.706,31.022-33.834,46.431c0,0-29.505-48.903-34.775-113.628
				L1799.764,1871.193z"/>
			<path style="fill:#379168;" d="M1765.099,1915.771c-1.686-26.576-1.748-54.021-0.875-80.353l-23.802-29.672l0.832-0.667
				l23.026,28.704c0.779-22.469,2.231-44.094,3.928-63.636l-0.401,0.322l-23.996-29.913l0.832-0.667l23.635,29.463
				c1.012-11.576,2.107-22.415,3.196-32.249c0.012-0.105,0.023-0.208,0.035-0.312l-0.003-0.004l0.004-0.003
				c5.558-50.075,12.137-85.584,12.203-85.938l1.049,0.196c-0.066,0.351-6.55,35.352-12.079,84.853l32.559-24.693l0.645,0.85
				l-33.366,25.305c-1.812,16.376-3.641,35.524-5.07,56.242l41.155-25.077l0.555,0.911l-41.799,25.469
				c-2.553,37.578-3.771,80.209-1.196,120.802L1765.099,1915.771z"/>
		</g>
		<g>
			<path style="fill:#74C9A2;" d="M1810.137,1921.034c-14.766,9.754-31.794,18.434-51.437,25.589c0,0-3.621-57,21.561-116.858
				c19.316-45.913,55.58-93.508,123.418-118.354C1903.679,1711.412,1922.156,1847.063,1810.137,1921.034z"/>
			<path style="fill:#379168;" d="M1810.137,1921.034c-14.766,9.754-31.794,18.434-51.437,25.589c0,0-3.621-57,21.561-116.858
				L1810.137,1921.034z"/>
			<path style="fill:#379168;" d="M1888.976,1782.659l-0.18-1.051l-40.278,6.89c27.74-41.369,49.639-69.433,49.859-69.714
				l-0.84-0.657c-0.222,0.283-22.439,28.754-50.469,70.62l-0.005,0.001l0.001,0.005c-0.058,0.087-0.116,0.174-0.175,0.261
				c-5.503,8.223-11.474,17.334-17.712,27.138l-7.379-37.043l-1.046,0.208l7.492,37.609l0.505-0.101
				c-10.519,16.556-21.783,35.073-32.839,54.649l-0.803,1.425c-12.921,22.961-25.527,47.34-36.289,71.697l0.976,0.431
				c16.439-37.204,37.185-74.467,56.785-106.63l48.835-3.316l-0.072-1.064l-48.082,3.265c10.825-17.723,21.279-33.868,30.441-47.562
				L1888.976,1782.659z"/>
		</g>
		<g>
			<path style="fill:#74C9A2;" d="M1793.681,1953.697c0,0,13.221-208.209-169.608-275.169
				C1624.072,1678.528,1596.381,1881.817,1793.681,1953.697z"/>
			<path style="fill:#379168;" d="M1793.544,1951.323c-12.591-28.495-27.337-57.016-42.454-83.877l8.694-43.643l-1.224-0.244
				l-8.41,42.219c-12.934-22.902-26.111-44.564-38.417-63.933l0.591,0.118l8.765-43.998l-1.224-0.244l-8.633,43.336
				c-7.297-11.47-14.283-22.129-20.72-31.748c-0.068-0.102-0.136-0.203-0.205-0.305l0.001-0.005l-0.005-0.001
				c-32.792-48.977-58.783-82.284-59.042-82.616l-0.983,0.769c0.257,0.329,25.876,33.16,58.328,81.557l-47.12-8.06l-0.21,1.23
				l48.289,8.26c10.718,16.02,22.949,34.908,35.612,55.641l-56.25-3.82l-0.084,1.245l57.131,3.88
				c22.929,37.627,47.199,81.22,66.431,124.744L1793.544,1951.323z"/>
		</g>
		<polygon style="fill:#E3733F;" points="1859.421,1889.906 1841.001,2037.571 1704.463,2037.571 1688.383,1908.667 
			1686.043,1889.906 		"/>
		<path style="fill:#DB542E;" d="M1859.421,1889.906l-18.42,147.664h-70.442c44.363-19.743,71.482-67.871,66.5-95.498
			c-5.563-30.859-136.582-33.252-148.676-33.406l-2.34-18.76H1859.421z"/>
		<rect x="1681.153" y="1888.937" style="fill:#E3733F;" width="183.155" height="16.58"/>
		<polygon style="fill:#DB542E;" points="1859.976,2037.975 1682.021,2037.975 1675.834,2025.776 1866.163,2025.776 		"/>
	</g>
</g>
<g id="laptops">
	<g>
		<g>
			<path style="fill:#33ACE6;" d="M2507.117,1590.384l-136.723,430.273h-367.212v18.203h361.428h20.9
				c39.754-124.487,129.463-404.667,145.539-448.477H2507.117z"/>
			<polygon style="fill:#2786B4;" points="2531.336,1590.384 2385.628,2038.861 2486.345,2038.861 2962.348,2038.861 
				3104.854,1590.384 			"/>
		</g>
		<g>
			<polygon style="fill:#FFFFFF;" points="2769.919,1880.621 2727.323,1880.621 2770.214,1738.949 2812.811,1738.949 			"/>
			<polygon style="fill:#FFFFFF;" points="2692.782,1831.084 2705.679,1788.487 2847.351,1788.487 2834.454,1831.084 			"/>
		</g>
	</g>
	<g>
		<g>
			<path style="fill:#33ACE6;" d="M1096.829,1590.384l136.723,430.273h367.212v18.203h-361.428h-20.9
				c-39.754-124.487-129.464-404.667-145.539-448.477H1096.829z"/>
			<polygon style="fill:#2786B4;" points="1072.61,1590.384 1218.318,2038.861 1117.601,2038.861 641.598,2038.861 
				499.092,1590.384 			"/>
		</g>
		<g>
			<polygon style="fill:#FFFFFF;" points="834.027,1880.621 876.623,1880.621 833.732,1738.949 791.135,1738.949 			"/>
			<polygon style="fill:#FFFFFF;" points="911.164,1831.084 898.267,1788.487 756.595,1788.487 769.492,1831.084 			"/>
		</g>
	</g>
</g>
<g id="icons_1_">
	<g id="profile_1_">
		<path style="fill:#B3E4FF;" d="M896.108,1192.049h-380.64c-20.303,0-36.762-16.459-36.762-36.762V731.905
			c0-20.303,16.459-36.762,36.762-36.762h380.64c20.303,0,36.762,16.459,36.762,36.762v423.382
			C932.87,1175.59,916.411,1192.049,896.108,1192.049z"/>
		<g>
			<rect x="545.61" y="761.346" style="fill:#FFFFFF;" width="123.151" height="134.461"/>
			<g>
				<g>
					<path style="fill:#296ACC;" d="M607.926,830.333c7.648,0,14.711-3.726,19.223-9.415c3.333-4.118,5.297-9.415,5.297-15.3
						c0-13.533-10.986-24.715-24.519-24.715c-13.73,0-24.715,11.182-24.715,24.715c0,5.885,1.959,11.182,5.296,15.3
						C593.019,826.608,600.078,830.333,607.926,830.333z"/>
				</g>
				<path style="fill:#296ACC;" d="M651.356,876.983l0.015-20.786c-7.095-25.891-83.644-24.847-87.086,0l-0.025,20.786H651.356z"/>
			</g>
		</g>
		<path style="fill:#80B2FF;" d="M859.519,780.552H705.46c-3.625,0-6.563-2.939-6.563-6.563v-3.78c0-3.625,2.938-6.563,6.563-6.563
			h154.059c3.625,0,6.563,2.939,6.563,6.563v3.78C866.083,777.613,863.144,780.552,859.519,780.552z"/>
		<path style="fill:#80B2FF;" d="M859.519,825.984H705.46c-3.625,0-6.563-2.939-6.563-6.563v-3.78c0-3.625,2.938-6.563,6.563-6.563
			h154.059c3.625,0,6.563,2.938,6.563,6.563v3.78C866.083,823.046,863.144,825.984,859.519,825.984z"/>
		<path style="fill:#80B2FF;" d="M859.519,876.038H705.46c-3.625,0-6.563-2.938-6.563-6.563v-3.78c0-3.625,2.938-6.563,6.563-6.563
			h154.059c3.625,0,6.563,2.938,6.563,6.563v3.78C866.083,873.099,863.144,876.038,859.519,876.038z"/>
		<path style="fill:#80B2FF;" d="M695.151,960.801h-147.63c-2.535,0-4.589-2.055-4.589-4.589v-7.728
			c0-2.535,2.055-4.589,4.589-4.589h147.63c2.534,0,4.589,2.055,4.589,4.589v7.728C699.741,958.746,697.686,960.801,695.151,960.801
			z"/>
		<path style="fill:#80B2FF;" d="M695.151,1013.693h-147.63c-2.535,0-4.589-2.055-4.589-4.589v-7.728
			c0-2.534,2.055-4.589,4.589-4.589h147.63c2.534,0,4.589,2.055,4.589,4.589v7.728
			C699.741,1011.638,697.686,1013.693,695.151,1013.693z"/>
		<path style="fill:#80B2FF;" d="M695.151,1066.585h-147.63c-2.535,0-4.589-2.055-4.589-4.589v-7.728
			c0-2.535,2.055-4.589,4.589-4.589h147.63c2.534,0,4.589,2.055,4.589,4.589v7.728
			C699.741,1064.53,697.686,1066.585,695.151,1066.585z"/>
		<path style="fill:#80B2FF;" d="M695.151,1119.477h-147.63c-2.535,0-4.589-2.055-4.589-4.589v-7.728
			c0-2.535,2.055-4.589,4.589-4.589h147.63c2.534,0,4.589,2.055,4.589,4.589v7.728
			C699.741,1117.422,697.686,1119.477,695.151,1119.477z"/>
		<rect x="728.919" y="938.428" style="fill:#FFFFFF;" width="143.076" height="184.764"/>
	</g>
	<g id="text_box_3_">
		<g>
			<path style="fill:#80B2FF;" d="M1471.406,809.677h380.731c14.084,0,25.502-11.417,25.502-25.502V620.878
				c0-14.084-11.418-25.502-25.502-25.502h-380.731c-14.084,0-25.502,11.418-25.502,25.502v163.298
				C1445.904,798.26,1457.322,809.677,1471.406,809.677z"/>
			<polygon style="fill:#80B2FF;" points="1517.166,775.048 1517.166,871.729 1615.706,773.188 			"/>
		</g>
		<g>
			<circle style="fill:#FFFFFF;" cx="1795.052" cy="704.521" r="18.813"/>
			<circle style="fill:#FFFFFF;" cx="1731.972" cy="704.521" r="18.813"/>
			<circle style="fill:#FFFFFF;" cx="1668.892" cy="704.521" r="18.813"/>
			<circle style="fill:#FFFFFF;" cx="1605.812" cy="704.521" r="18.813"/>
			<circle style="fill:#FFFFFF;" cx="1542.732" cy="704.521" r="18.813"/>
		</g>
	</g>
	<g id="text_box_2_">
		<g>
			<path style="fill:#80B2FF;" d="M1354.505,585.963H1098.11c-9.485,0-17.174-7.689-17.174-17.174V458.82
				c0-9.485,7.689-17.174,17.174-17.174h256.395c9.485,0,17.174,7.689,17.174,17.174v109.969
				C1371.678,578.274,1363.99,585.963,1354.505,585.963z"/>
			<polygon style="fill:#80B2FF;" points="1323.689,562.642 1323.689,627.75 1257.329,561.39 			"/>
		</g>
		<g>
			<circle style="fill:#FFFFFF;" cx="1136.553" cy="515.147" r="12.669"/>
			<circle style="fill:#FFFFFF;" cx="1179.032" cy="515.147" r="12.669"/>
			<circle style="fill:#FFFFFF;" cx="1221.512" cy="515.147" r="12.669"/>
			<circle style="fill:#FFFFFF;" cx="1263.992" cy="515.147" r="12.669"/>
			<circle style="fill:#FFFFFF;" cx="1306.472" cy="515.147" r="12.669"/>
		</g>
	</g>
	<g id="calener_1_">
		<path style="fill:#80B2FF;" d="M2881.639,899.981h-157.357c-22.672,0-41.118,18.446-41.118,41.119v157.357
			c0,22.68,18.446,41.133,41.118,41.133h157.357c22.672,0,41.117-18.453,41.117-41.133V941.099
			C2922.757,918.427,2904.312,899.981,2881.639,899.981z M2881.639,1131.3h-157.357c-18.102,0-32.828-14.734-32.828-32.844V959.194
			h223.013v139.263C2914.467,1116.566,2899.74,1131.3,2881.639,1131.3z"/>
		<g>
			<rect x="2745.07" y="986.986" style="fill:#80B2FF;" width="32.672" height="31.506"/>
			<rect x="2787.942" y="986.986" style="fill:#FFFFFF;" width="32.672" height="31.506"/>
			<rect x="2828.179" y="986.986" style="fill:#FFFFFF;" width="32.672" height="31.506"/>
			<rect x="2871.051" y="986.986" style="fill:#FFFFFF;" width="32.672" height="31.506"/>
		</g>
		<g>
			<rect x="2702.197" y="1029.494" style="fill:#FFFFFF;" width="32.672" height="31.505"/>
			<rect x="2745.07" y="1029.494" style="fill:#FFFFFF;" width="32.672" height="31.505"/>
			<rect x="2787.942" y="1029.494" style="fill:#FFFFFF;" width="32.672" height="31.505"/>
			<rect x="2828.179" y="1029.494" style="fill:#FFFFFF;" width="32.672" height="31.505"/>
			<rect x="2871.051" y="1029.494" style="fill:#FFFFFF;" width="32.672" height="31.505"/>
		</g>
		<g>
			<rect x="2702.197" y="1072.002" style="fill:#FFFFFF;" width="32.672" height="31.506"/>
			<rect x="2745.07" y="1072.002" style="fill:#FFFFFF;" width="32.672" height="31.506"/>
			<rect x="2787.942" y="1072.002" style="fill:#FFFFFF;" width="32.672" height="31.506"/>
			<rect x="2828.179" y="1072.002" style="fill:#FFFFFF;" width="32.672" height="31.506"/>
		</g>
	</g>
	<g>
		<g id="bag_2_">
			<circle style="fill:#A6DFFF;" cx="1775.547" cy="1112.076" r="141.062"/>
		</g>
		<path style="fill:#FFFFFF;" d="M1717.134,1034.771l-2.906,2.906l-0.38-0.38l-30.477,30.477l36.978,36.978l16.487-16.487
			c20.031,16.888,42.385,39.214,59.37,59.286l-16.528,16.528l36.978,36.978l6.108-6.108c-0.196,0.347-0.43,0.665-0.711,0.946
			l28.104-28.103C1864.974,1152.976,1731.952,1019.953,1717.134,1034.771z"/>
	</g>
	<g>
		<g id="_x2B__4_">
			<circle style="fill:#A6DFFF;" cx="2590.064" cy="775.189" r="75.733"/>
		</g>
		<polygon style="fill:#FFFFFF;" points="2636.322,789.805 2580.73,789.805 2580.73,721.627 2591.233,721.627 2591.233,779.302 
			2636.322,779.302 		"/>
	</g>
	<g>
		<g>
			<g id="_x2B__3_">
				<circle style="fill:#A6DFFF;" cx="2177.43" cy="501.264" r="71.732"/>
			</g>
		</g>
		<g>
			<path style="fill:#FFFFFF;" d="M2167.418,514.862v-1.931c0-6.707,2.744-11.789,10.264-18.496
				c4.167-3.761,5.488-6.809,5.488-10.366c0-3.862-2.236-7.012-7.114-7.012c-5.793,0-7.725,3.964-8.233,8.842h-14.33
				c0.508-8.537,5.895-20.122,22.765-20.021c16.667,0,21.545,10.773,21.545,18.7c0,6.403-2.032,10.773-9.35,17.582
				c-4.37,4.065-5.793,7.419-5.793,11.586v1.118H2167.418z M2167.418,536.915v-16.87h15.244v16.87H2167.418z"/>
		</g>
	</g>
</g>
</svg>
